<?xml version="1.0" encoding="utf-8"?>
<svg xmlns="http://www.w3.org/2000/svg" xmlns:xlink="http://www.w3.org/1999/xlink" width="600" height="400" viewBox="0 0 2400 1600">
<defs>
  <clipPath id="clip190">
    <rect x="0" y="0" width="2400" height="1600"/>
  </clipPath>
</defs>
<path clip-path="url(#clip190)" d="
M0 1600 L2400 1600 L2400 0 L0 0  Z
  " fill="#ffffff" fill-rule="evenodd" fill-opacity="1"/>
<defs>
  <clipPath id="clip191">
    <rect x="480" y="0" width="1681" height="1600"/>
  </clipPath>
</defs>
<path clip-path="url(#clip190)" d="
M249.542 1423.18 L2352.76 1423.18 L2352.76 47.2441 L249.542 47.2441  Z
  " fill="#ffffff" fill-rule="evenodd" fill-opacity="1"/>
<defs>
  <clipPath id="clip192">
    <rect x="249" y="47" width="2104" height="1377"/>
  </clipPath>
</defs>
<polyline clip-path="url(#clip192)" style="stroke:#000000; stroke-linecap:butt; stroke-linejoin:round; stroke-width:2; stroke-opacity:0.1; fill:none" points="
  302.431,1423.18 302.431,47.2441 
  "/>
<polyline clip-path="url(#clip192)" style="stroke:#000000; stroke-linecap:butt; stroke-linejoin:round; stroke-width:2; stroke-opacity:0.1; fill:none" points="
  966.031,1423.18 966.031,47.2441 
  "/>
<polyline clip-path="url(#clip192)" style="stroke:#000000; stroke-linecap:butt; stroke-linejoin:round; stroke-width:2; stroke-opacity:0.1; fill:none" points="
  1629.63,1423.18 1629.63,47.2441 
  "/>
<polyline clip-path="url(#clip192)" style="stroke:#000000; stroke-linecap:butt; stroke-linejoin:round; stroke-width:2; stroke-opacity:0.1; fill:none" points="
  2293.23,1423.18 2293.23,47.2441 
  "/>
<polyline clip-path="url(#clip190)" style="stroke:#000000; stroke-linecap:butt; stroke-linejoin:round; stroke-width:4; stroke-opacity:1; fill:none" points="
  249.542,1423.18 2352.76,1423.18 
  "/>
<polyline clip-path="url(#clip190)" style="stroke:#000000; stroke-linecap:butt; stroke-linejoin:round; stroke-width:4; stroke-opacity:1; fill:none" points="
  302.431,1423.18 302.431,1404.28 
  "/>
<polyline clip-path="url(#clip190)" style="stroke:#000000; stroke-linecap:butt; stroke-linejoin:round; stroke-width:4; stroke-opacity:1; fill:none" points="
  966.031,1423.18 966.031,1404.28 
  "/>
<polyline clip-path="url(#clip190)" style="stroke:#000000; stroke-linecap:butt; stroke-linejoin:round; stroke-width:4; stroke-opacity:1; fill:none" points="
  1629.63,1423.18 1629.63,1404.28 
  "/>
<polyline clip-path="url(#clip190)" style="stroke:#000000; stroke-linecap:butt; stroke-linejoin:round; stroke-width:4; stroke-opacity:1; fill:none" points="
  2293.23,1423.18 2293.23,1404.28 
  "/>
<path clip-path="url(#clip190)" d="M302.431 1454.1 Q298.82 1454.1 296.991 1457.66 Q295.186 1461.2 295.186 1468.33 Q295.186 1475.44 296.991 1479.01 Q298.82 1482.55 302.431 1482.55 Q306.065 1482.55 307.871 1479.01 Q309.699 1475.44 309.699 1468.33 Q309.699 1461.2 307.871 1457.66 Q306.065 1454.1 302.431 1454.1 M302.431 1450.39 Q308.241 1450.39 311.297 1455 Q314.375 1459.58 314.375 1468.33 Q314.375 1477.06 311.297 1481.67 Q308.241 1486.25 302.431 1486.25 Q296.621 1486.25 293.542 1481.67 Q290.487 1477.06 290.487 1468.33 Q290.487 1459.58 293.542 1455 Q296.621 1450.39 302.431 1450.39 Z" fill="#000000" fill-rule="evenodd" fill-opacity="1" /><path clip-path="url(#clip190)" d="M925.638 1481.64 L933.277 1481.64 L933.277 1455.28 L924.966 1456.95 L924.966 1452.69 L933.23 1451.02 L937.906 1451.02 L937.906 1481.64 L945.545 1481.64 L945.545 1485.58 L925.638 1485.58 L925.638 1481.64 Z" fill="#000000" fill-rule="evenodd" fill-opacity="1" /><path clip-path="url(#clip190)" d="M964.989 1454.1 Q961.378 1454.1 959.55 1457.66 Q957.744 1461.2 957.744 1468.33 Q957.744 1475.44 959.55 1479.01 Q961.378 1482.55 964.989 1482.55 Q968.624 1482.55 970.429 1479.01 Q972.258 1475.44 972.258 1468.33 Q972.258 1461.2 970.429 1457.66 Q968.624 1454.1 964.989 1454.1 M964.989 1450.39 Q970.799 1450.39 973.855 1455 Q976.934 1459.58 976.934 1468.33 Q976.934 1477.06 973.855 1481.67 Q970.799 1486.25 964.989 1486.25 Q959.179 1486.25 956.1 1481.67 Q953.045 1477.06 953.045 1468.33 Q953.045 1459.58 956.1 1455 Q959.179 1450.39 964.989 1450.39 Z" fill="#000000" fill-rule="evenodd" fill-opacity="1" /><path clip-path="url(#clip190)" d="M995.151 1454.1 Q991.54 1454.1 989.711 1457.66 Q987.906 1461.2 987.906 1468.33 Q987.906 1475.44 989.711 1479.01 Q991.54 1482.55 995.151 1482.55 Q998.785 1482.55 1000.59 1479.01 Q1002.42 1475.44 1002.42 1468.33 Q1002.42 1461.2 1000.59 1457.66 Q998.785 1454.1 995.151 1454.1 M995.151 1450.39 Q1000.96 1450.39 1004.02 1455 Q1007.1 1459.58 1007.1 1468.33 Q1007.1 1477.06 1004.02 1481.67 Q1000.96 1486.25 995.151 1486.25 Q989.341 1486.25 986.262 1481.67 Q983.207 1477.06 983.207 1468.33 Q983.207 1459.58 986.262 1455 Q989.341 1450.39 995.151 1450.39 Z" fill="#000000" fill-rule="evenodd" fill-opacity="1" /><path clip-path="url(#clip190)" d="M1593.32 1481.64 L1609.64 1481.64 L1609.64 1485.58 L1587.7 1485.58 L1587.7 1481.64 Q1590.36 1478.89 1594.94 1474.26 Q1599.55 1469.61 1600.73 1468.27 Q1602.98 1465.74 1603.86 1464.01 Q1604.76 1462.25 1604.76 1460.56 Q1604.76 1457.8 1602.81 1456.07 Q1600.89 1454.33 1597.79 1454.33 Q1595.59 1454.33 1593.14 1455.09 Q1590.71 1455.86 1587.93 1457.41 L1587.93 1452.69 Q1590.75 1451.55 1593.21 1450.97 Q1595.66 1450.39 1597.7 1450.39 Q1603.07 1450.39 1606.26 1453.08 Q1609.46 1455.77 1609.46 1460.26 Q1609.46 1462.39 1608.65 1464.31 Q1607.86 1466.2 1605.75 1468.8 Q1605.18 1469.47 1602.07 1472.69 Q1598.97 1475.88 1593.32 1481.64 Z" fill="#000000" fill-rule="evenodd" fill-opacity="1" /><path clip-path="url(#clip190)" d="M1629.46 1454.1 Q1625.85 1454.1 1624.02 1457.66 Q1622.21 1461.2 1622.21 1468.33 Q1622.21 1475.44 1624.02 1479.01 Q1625.85 1482.55 1629.46 1482.55 Q1633.09 1482.55 1634.9 1479.01 Q1636.73 1475.44 1636.73 1468.33 Q1636.73 1461.2 1634.9 1457.66 Q1633.09 1454.1 1629.46 1454.1 M1629.46 1450.39 Q1635.27 1450.39 1638.32 1455 Q1641.4 1459.58 1641.4 1468.33 Q1641.4 1477.06 1638.32 1481.67 Q1635.27 1486.25 1629.46 1486.25 Q1623.65 1486.25 1620.57 1481.67 Q1617.51 1477.06 1617.51 1468.33 Q1617.51 1459.58 1620.57 1455 Q1623.65 1450.39 1629.46 1450.39 Z" fill="#000000" fill-rule="evenodd" fill-opacity="1" /><path clip-path="url(#clip190)" d="M1659.62 1454.1 Q1656.01 1454.1 1654.18 1457.66 Q1652.37 1461.2 1652.37 1468.33 Q1652.37 1475.44 1654.18 1479.01 Q1656.01 1482.55 1659.62 1482.55 Q1663.25 1482.55 1665.06 1479.01 Q1666.89 1475.44 1666.89 1468.33 Q1666.89 1461.2 1665.06 1457.66 Q1663.25 1454.1 1659.62 1454.1 M1659.62 1450.39 Q1665.43 1450.39 1668.48 1455 Q1671.56 1459.58 1671.56 1468.33 Q1671.56 1477.06 1668.48 1481.67 Q1665.43 1486.25 1659.62 1486.25 Q1653.81 1486.25 1650.73 1481.67 Q1647.67 1477.06 1647.67 1468.33 Q1647.67 1459.58 1650.73 1455 Q1653.81 1450.39 1659.62 1450.39 Z" fill="#000000" fill-rule="evenodd" fill-opacity="1" /><path clip-path="url(#clip190)" d="M2266.99 1466.95 Q2270.35 1467.66 2272.22 1469.93 Q2274.12 1472.2 2274.12 1475.53 Q2274.12 1480.65 2270.6 1483.45 Q2267.09 1486.25 2260.6 1486.25 Q2258.43 1486.25 2256.11 1485.81 Q2253.82 1485.39 2251.37 1484.54 L2251.37 1480.02 Q2253.31 1481.16 2255.63 1481.74 Q2257.94 1482.32 2260.46 1482.32 Q2264.86 1482.32 2267.15 1480.58 Q2269.47 1478.84 2269.47 1475.53 Q2269.47 1472.48 2267.32 1470.77 Q2265.19 1469.03 2261.37 1469.03 L2257.34 1469.03 L2257.34 1465.19 L2261.55 1465.19 Q2265 1465.19 2266.83 1463.82 Q2268.66 1462.43 2268.66 1459.84 Q2268.66 1457.18 2266.76 1455.77 Q2264.89 1454.33 2261.37 1454.33 Q2259.45 1454.33 2257.25 1454.75 Q2255.05 1455.16 2252.41 1456.04 L2252.41 1451.88 Q2255.07 1451.14 2257.39 1450.77 Q2259.72 1450.39 2261.78 1450.39 Q2267.11 1450.39 2270.21 1452.83 Q2273.31 1455.23 2273.31 1459.35 Q2273.31 1462.22 2271.67 1464.21 Q2270.03 1466.18 2266.99 1466.95 Z" fill="#000000" fill-rule="evenodd" fill-opacity="1" /><path clip-path="url(#clip190)" d="M2292.99 1454.1 Q2289.38 1454.1 2287.55 1457.66 Q2285.74 1461.2 2285.74 1468.33 Q2285.74 1475.44 2287.55 1479.01 Q2289.38 1482.55 2292.99 1482.55 Q2296.62 1482.55 2298.43 1479.01 Q2300.26 1475.44 2300.26 1468.33 Q2300.26 1461.2 2298.43 1457.66 Q2296.62 1454.1 2292.99 1454.1 M2292.99 1450.39 Q2298.8 1450.39 2301.85 1455 Q2304.93 1459.58 2304.93 1468.33 Q2304.93 1477.06 2301.85 1481.67 Q2298.8 1486.25 2292.99 1486.25 Q2287.18 1486.25 2284.1 1481.67 Q2281.04 1477.06 2281.04 1468.33 Q2281.04 1459.58 2284.1 1455 Q2287.18 1450.39 2292.99 1450.39 Z" fill="#000000" fill-rule="evenodd" fill-opacity="1" /><path clip-path="url(#clip190)" d="M2323.15 1454.1 Q2319.54 1454.1 2317.71 1457.66 Q2315.9 1461.2 2315.9 1468.33 Q2315.9 1475.44 2317.71 1479.01 Q2319.54 1482.55 2323.15 1482.55 Q2326.78 1482.55 2328.59 1479.01 Q2330.42 1475.44 2330.42 1468.33 Q2330.42 1461.2 2328.59 1457.66 Q2326.78 1454.1 2323.15 1454.1 M2323.15 1450.39 Q2328.96 1450.39 2332.02 1455 Q2335.09 1459.58 2335.09 1468.33 Q2335.09 1477.06 2332.02 1481.67 Q2328.96 1486.25 2323.15 1486.25 Q2317.34 1486.25 2314.26 1481.67 Q2311.21 1477.06 2311.21 1468.33 Q2311.21 1459.58 2314.26 1455 Q2317.34 1450.39 2323.15 1450.39 Z" fill="#000000" fill-rule="evenodd" fill-opacity="1" /><path clip-path="url(#clip190)" d="M1168.87 1520.52 L1175.3 1520.52 L1175.3 1568.04 L1168.87 1568.04 L1168.87 1520.52 Z" fill="#000000" fill-rule="evenodd" fill-opacity="1" /><path clip-path="url(#clip190)" d="M1193.63 1522.27 L1193.63 1532.4 L1205.7 1532.4 L1205.7 1536.95 L1193.63 1536.95 L1193.63 1556.3 Q1193.63 1560.66 1194.81 1561.9 Q1196.02 1563.14 1199.68 1563.14 L1205.7 1563.14 L1205.7 1568.04 L1199.68 1568.04 Q1192.9 1568.04 1190.32 1565.53 Q1187.74 1562.98 1187.74 1556.3 L1187.74 1536.95 L1183.45 1536.95 L1183.45 1532.4 L1187.74 1532.4 L1187.74 1522.27 L1193.63 1522.27 Z" fill="#000000" fill-rule="evenodd" fill-opacity="1" /><path clip-path="url(#clip190)" d="M1243.89 1548.76 L1243.89 1551.62 L1216.96 1551.62 Q1217.34 1557.67 1220.59 1560.85 Q1223.87 1564 1229.69 1564 Q1233.07 1564 1236.22 1563.17 Q1239.4 1562.35 1242.52 1560.69 L1242.52 1566.23 Q1239.37 1567.57 1236.06 1568.27 Q1232.75 1568.97 1229.34 1568.97 Q1220.81 1568.97 1215.82 1564 Q1210.85 1559.04 1210.85 1550.57 Q1210.85 1541.82 1215.56 1536.69 Q1220.3 1531.54 1228.33 1531.54 Q1235.52 1531.54 1239.69 1536.18 Q1243.89 1540.8 1243.89 1548.76 M1238.03 1547.04 Q1237.97 1542.23 1235.33 1539.37 Q1232.72 1536.5 1228.39 1536.5 Q1223.49 1536.5 1220.53 1539.27 Q1217.6 1542.04 1217.15 1547.07 L1238.03 1547.04 Z" fill="#000000" fill-rule="evenodd" fill-opacity="1" /><path clip-path="url(#clip190)" d="M1274.16 1537.87 Q1273.17 1537.3 1271.99 1537.04 Q1270.85 1536.76 1269.45 1536.76 Q1264.48 1536.76 1261.81 1540 Q1259.17 1543.22 1259.17 1549.27 L1259.17 1568.04 L1253.28 1568.04 L1253.28 1532.4 L1259.17 1532.4 L1259.17 1537.93 Q1261.01 1534.69 1263.97 1533.13 Q1266.93 1531.54 1271.17 1531.54 Q1271.77 1531.54 1272.5 1531.63 Q1273.24 1531.7 1274.13 1531.85 L1274.16 1537.87 Z" fill="#000000" fill-rule="evenodd" fill-opacity="1" /><path clip-path="url(#clip190)" d="M1296.5 1550.12 Q1289.4 1550.12 1286.67 1551.75 Q1283.93 1553.37 1283.93 1557.29 Q1283.93 1560.4 1285.97 1562.25 Q1288.04 1564.07 1291.57 1564.07 Q1296.44 1564.07 1299.37 1560.63 Q1302.33 1557.16 1302.33 1551.43 L1302.33 1550.12 L1296.5 1550.12 M1308.18 1547.71 L1308.18 1568.04 L1302.33 1568.04 L1302.33 1562.63 Q1300.32 1565.88 1297.33 1567.44 Q1294.34 1568.97 1290.01 1568.97 Q1284.53 1568.97 1281.29 1565.91 Q1278.07 1562.82 1278.07 1557.67 Q1278.07 1551.65 1282.08 1548.6 Q1286.13 1545.54 1294.11 1545.54 L1302.33 1545.54 L1302.33 1544.97 Q1302.33 1540.93 1299.65 1538.73 Q1297.01 1536.5 1292.21 1536.5 Q1289.15 1536.5 1286.25 1537.23 Q1283.36 1537.97 1280.68 1539.43 L1280.68 1534.02 Q1283.9 1532.78 1286.92 1532.17 Q1289.95 1531.54 1292.81 1531.54 Q1300.54 1531.54 1304.36 1535.55 Q1308.18 1539.56 1308.18 1547.71 Z" fill="#000000" fill-rule="evenodd" fill-opacity="1" /><path clip-path="url(#clip190)" d="M1326.04 1522.27 L1326.04 1532.4 L1338.1 1532.4 L1338.1 1536.95 L1326.04 1536.95 L1326.04 1556.3 Q1326.04 1560.66 1327.22 1561.9 Q1328.43 1563.14 1332.09 1563.14 L1338.1 1563.14 L1338.1 1568.04 L1332.09 1568.04 Q1325.31 1568.04 1322.73 1565.53 Q1320.15 1562.98 1320.15 1556.3 L1320.15 1536.95 L1315.85 1536.95 L1315.85 1532.4 L1320.15 1532.4 L1320.15 1522.27 L1326.04 1522.27 Z" fill="#000000" fill-rule="evenodd" fill-opacity="1" /><path clip-path="url(#clip190)" d="M1345.8 1532.4 L1351.66 1532.4 L1351.66 1568.04 L1345.8 1568.04 L1345.8 1532.4 M1345.8 1518.52 L1351.66 1518.52 L1351.66 1525.93 L1345.8 1525.93 L1345.8 1518.52 Z" fill="#000000" fill-rule="evenodd" fill-opacity="1" /><path clip-path="url(#clip190)" d="M1377.73 1536.5 Q1373.02 1536.5 1370.28 1540.19 Q1367.54 1543.85 1367.54 1550.25 Q1367.54 1556.65 1370.25 1560.34 Q1372.99 1564 1377.73 1564 Q1382.41 1564 1385.14 1560.31 Q1387.88 1556.62 1387.88 1550.25 Q1387.88 1543.92 1385.14 1540.23 Q1382.41 1536.5 1377.73 1536.5 M1377.73 1531.54 Q1385.37 1531.54 1389.73 1536.5 Q1394.09 1541.47 1394.09 1550.25 Q1394.09 1559 1389.73 1564 Q1385.37 1568.97 1377.73 1568.97 Q1370.06 1568.97 1365.7 1564 Q1361.37 1559 1361.37 1550.25 Q1361.37 1541.47 1365.7 1536.5 Q1370.06 1531.54 1377.73 1531.54 Z" fill="#000000" fill-rule="evenodd" fill-opacity="1" /><path clip-path="url(#clip190)" d="M1433.43 1546.53 L1433.43 1568.04 L1427.57 1568.04 L1427.57 1546.72 Q1427.57 1541.66 1425.6 1539.14 Q1423.63 1536.63 1419.68 1536.63 Q1414.94 1536.63 1412.2 1539.65 Q1409.46 1542.68 1409.46 1547.9 L1409.46 1568.04 L1403.57 1568.04 L1403.57 1532.4 L1409.46 1532.4 L1409.46 1537.93 Q1411.56 1534.72 1414.39 1533.13 Q1417.26 1531.54 1420.98 1531.54 Q1427.13 1531.54 1430.28 1535.36 Q1433.43 1539.14 1433.43 1546.53 Z" fill="#000000" fill-rule="evenodd" fill-opacity="1" /><polyline clip-path="url(#clip192)" style="stroke:#000000; stroke-linecap:butt; stroke-linejoin:round; stroke-width:2; stroke-opacity:0.1; fill:none" points="
  249.542,1384.24 2352.76,1384.24 
  "/>
<polyline clip-path="url(#clip192)" style="stroke:#000000; stroke-linecap:butt; stroke-linejoin:round; stroke-width:2; stroke-opacity:0.1; fill:none" points="
  249.542,1059.73 2352.76,1059.73 
  "/>
<polyline clip-path="url(#clip192)" style="stroke:#000000; stroke-linecap:butt; stroke-linejoin:round; stroke-width:2; stroke-opacity:0.1; fill:none" points="
  249.542,735.212 2352.76,735.212 
  "/>
<polyline clip-path="url(#clip192)" style="stroke:#000000; stroke-linecap:butt; stroke-linejoin:round; stroke-width:2; stroke-opacity:0.1; fill:none" points="
  249.542,410.699 2352.76,410.699 
  "/>
<polyline clip-path="url(#clip192)" style="stroke:#000000; stroke-linecap:butt; stroke-linejoin:round; stroke-width:2; stroke-opacity:0.1; fill:none" points="
  249.542,86.1857 2352.76,86.1857 
  "/>
<polyline clip-path="url(#clip190)" style="stroke:#000000; stroke-linecap:butt; stroke-linejoin:round; stroke-width:4; stroke-opacity:1; fill:none" points="
  249.542,1423.18 249.542,47.2441 
  "/>
<polyline clip-path="url(#clip190)" style="stroke:#000000; stroke-linecap:butt; stroke-linejoin:round; stroke-width:4; stroke-opacity:1; fill:none" points="
  249.542,1384.24 268.44,1384.24 
  "/>
<polyline clip-path="url(#clip190)" style="stroke:#000000; stroke-linecap:butt; stroke-linejoin:round; stroke-width:4; stroke-opacity:1; fill:none" points="
  249.542,1059.73 268.44,1059.73 
  "/>
<polyline clip-path="url(#clip190)" style="stroke:#000000; stroke-linecap:butt; stroke-linejoin:round; stroke-width:4; stroke-opacity:1; fill:none" points="
  249.542,735.212 268.44,735.212 
  "/>
<polyline clip-path="url(#clip190)" style="stroke:#000000; stroke-linecap:butt; stroke-linejoin:round; stroke-width:4; stroke-opacity:1; fill:none" points="
  249.542,410.699 268.44,410.699 
  "/>
<polyline clip-path="url(#clip190)" style="stroke:#000000; stroke-linecap:butt; stroke-linejoin:round; stroke-width:4; stroke-opacity:1; fill:none" points="
  249.542,86.1857 268.44,86.1857 
  "/>
<path clip-path="url(#clip190)" d="M126.205 1370.04 Q122.593 1370.04 120.765 1373.6 Q118.959 1377.14 118.959 1384.27 Q118.959 1391.38 120.765 1394.94 Q122.593 1398.49 126.205 1398.49 Q129.839 1398.49 131.644 1394.94 Q133.473 1391.38 133.473 1384.27 Q133.473 1377.14 131.644 1373.6 Q129.839 1370.04 126.205 1370.04 M126.205 1366.33 Q132.015 1366.33 135.07 1370.94 Q138.149 1375.52 138.149 1384.27 Q138.149 1393 135.07 1397.61 Q132.015 1402.19 126.205 1402.19 Q120.394 1402.19 117.316 1397.61 Q114.26 1393 114.26 1384.27 Q114.26 1375.52 117.316 1370.94 Q120.394 1366.33 126.205 1366.33 Z" fill="#000000" fill-rule="evenodd" fill-opacity="1" /><path clip-path="url(#clip190)" d="M146.366 1395.64 L151.251 1395.64 L151.251 1401.52 L146.366 1401.52 L146.366 1395.64 Z" fill="#000000" fill-rule="evenodd" fill-opacity="1" /><path clip-path="url(#clip190)" d="M171.436 1370.04 Q167.825 1370.04 165.996 1373.6 Q164.19 1377.14 164.19 1384.27 Q164.19 1391.38 165.996 1394.94 Q167.825 1398.49 171.436 1398.49 Q175.07 1398.49 176.876 1394.94 Q178.704 1391.38 178.704 1384.27 Q178.704 1377.14 176.876 1373.6 Q175.07 1370.04 171.436 1370.04 M171.436 1366.33 Q177.246 1366.33 180.301 1370.94 Q183.38 1375.52 183.38 1384.27 Q183.38 1393 180.301 1397.61 Q177.246 1402.19 171.436 1402.19 Q165.626 1402.19 162.547 1397.61 Q159.491 1393 159.491 1384.27 Q159.491 1375.52 162.547 1370.94 Q165.626 1366.33 171.436 1366.33 Z" fill="#000000" fill-rule="evenodd" fill-opacity="1" /><path clip-path="url(#clip190)" d="M201.598 1370.04 Q197.987 1370.04 196.158 1373.6 Q194.352 1377.14 194.352 1384.27 Q194.352 1391.38 196.158 1394.94 Q197.987 1398.49 201.598 1398.49 Q205.232 1398.49 207.037 1394.94 Q208.866 1391.38 208.866 1384.27 Q208.866 1377.14 207.037 1373.6 Q205.232 1370.04 201.598 1370.04 M201.598 1366.33 Q207.408 1366.33 210.463 1370.94 Q213.542 1375.52 213.542 1384.27 Q213.542 1393 210.463 1397.61 Q207.408 1402.19 201.598 1402.19 Q195.787 1402.19 192.709 1397.61 Q189.653 1393 189.653 1384.27 Q189.653 1375.52 192.709 1370.94 Q195.787 1366.33 201.598 1366.33 Z" fill="#000000" fill-rule="evenodd" fill-opacity="1" /><path clip-path="url(#clip190)" d="M127.2 1045.52 Q123.589 1045.52 121.76 1049.09 Q119.955 1052.63 119.955 1059.76 Q119.955 1066.87 121.76 1070.43 Q123.589 1073.97 127.2 1073.97 Q130.834 1073.97 132.64 1070.43 Q134.468 1066.87 134.468 1059.76 Q134.468 1052.63 132.64 1049.09 Q130.834 1045.52 127.2 1045.52 M127.2 1041.82 Q133.01 1041.82 136.066 1046.43 Q139.144 1051.01 139.144 1059.76 Q139.144 1068.49 136.066 1073.09 Q133.01 1077.68 127.2 1077.68 Q121.39 1077.68 118.311 1073.09 Q115.256 1068.49 115.256 1059.76 Q115.256 1051.01 118.311 1046.43 Q121.39 1041.82 127.2 1041.82 Z" fill="#000000" fill-rule="evenodd" fill-opacity="1" /><path clip-path="url(#clip190)" d="M147.362 1071.13 L152.246 1071.13 L152.246 1077.01 L147.362 1077.01 L147.362 1071.13 Z" fill="#000000" fill-rule="evenodd" fill-opacity="1" /><path clip-path="url(#clip190)" d="M166.459 1073.07 L182.778 1073.07 L182.778 1077.01 L160.834 1077.01 L160.834 1073.07 Q163.496 1070.32 168.079 1065.69 Q172.686 1061.03 173.866 1059.69 Q176.112 1057.17 176.991 1055.43 Q177.894 1053.67 177.894 1051.98 Q177.894 1049.23 175.95 1047.49 Q174.028 1045.76 170.927 1045.76 Q168.727 1045.76 166.274 1046.52 Q163.843 1047.28 161.065 1048.83 L161.065 1044.11 Q163.89 1042.98 166.343 1042.4 Q168.797 1041.82 170.834 1041.82 Q176.204 1041.82 179.399 1044.51 Q182.593 1047.19 182.593 1051.68 Q182.593 1053.81 181.783 1055.73 Q180.996 1057.63 178.889 1060.22 Q178.311 1060.89 175.209 1064.11 Q172.107 1067.31 166.459 1073.07 Z" fill="#000000" fill-rule="evenodd" fill-opacity="1" /><path clip-path="url(#clip190)" d="M192.639 1042.45 L210.996 1042.45 L210.996 1046.38 L196.922 1046.38 L196.922 1054.85 Q197.94 1054.51 198.959 1054.34 Q199.977 1054.16 200.996 1054.16 Q206.783 1054.16 210.162 1057.33 Q213.542 1060.5 213.542 1065.92 Q213.542 1071.5 210.07 1074.6 Q206.598 1077.68 200.278 1077.68 Q198.102 1077.68 195.834 1077.31 Q193.588 1076.94 191.181 1076.19 L191.181 1071.5 Q193.264 1072.63 195.487 1073.19 Q197.709 1073.74 200.186 1073.74 Q204.19 1073.74 206.528 1071.63 Q208.866 1069.53 208.866 1065.92 Q208.866 1062.31 206.528 1060.2 Q204.19 1058.09 200.186 1058.09 Q198.311 1058.09 196.436 1058.51 Q194.584 1058.93 192.639 1059.81 L192.639 1042.45 Z" fill="#000000" fill-rule="evenodd" fill-opacity="1" /><path clip-path="url(#clip190)" d="M126.205 721.011 Q122.593 721.011 120.765 724.575 Q118.959 728.117 118.959 735.247 Q118.959 742.353 120.765 745.918 Q122.593 749.46 126.205 749.46 Q129.839 749.46 131.644 745.918 Q133.473 742.353 133.473 735.247 Q133.473 728.117 131.644 724.575 Q129.839 721.011 126.205 721.011 M126.205 717.307 Q132.015 717.307 135.07 721.913 Q138.149 726.497 138.149 735.247 Q138.149 743.973 135.07 748.58 Q132.015 753.163 126.205 753.163 Q120.394 753.163 117.316 748.58 Q114.26 743.973 114.26 735.247 Q114.26 726.497 117.316 721.913 Q120.394 717.307 126.205 717.307 Z" fill="#000000" fill-rule="evenodd" fill-opacity="1" /><path clip-path="url(#clip190)" d="M146.366 746.612 L151.251 746.612 L151.251 752.492 L146.366 752.492 L146.366 746.612 Z" fill="#000000" fill-rule="evenodd" fill-opacity="1" /><path clip-path="url(#clip190)" d="M161.482 717.932 L179.839 717.932 L179.839 721.867 L165.765 721.867 L165.765 730.339 Q166.783 729.992 167.802 729.83 Q168.82 729.645 169.839 729.645 Q175.626 729.645 179.005 732.816 Q182.385 735.987 182.385 741.404 Q182.385 746.983 178.913 750.085 Q175.44 753.163 169.121 753.163 Q166.945 753.163 164.677 752.793 Q162.431 752.423 160.024 751.682 L160.024 746.983 Q162.107 748.117 164.329 748.673 Q166.552 749.228 169.028 749.228 Q173.033 749.228 175.371 747.122 Q177.709 745.015 177.709 741.404 Q177.709 737.793 175.371 735.687 Q173.033 733.58 169.028 733.58 Q167.153 733.58 165.278 733.997 Q163.427 734.413 161.482 735.293 L161.482 717.932 Z" fill="#000000" fill-rule="evenodd" fill-opacity="1" /><path clip-path="url(#clip190)" d="M201.598 721.011 Q197.987 721.011 196.158 724.575 Q194.352 728.117 194.352 735.247 Q194.352 742.353 196.158 745.918 Q197.987 749.46 201.598 749.46 Q205.232 749.46 207.037 745.918 Q208.866 742.353 208.866 735.247 Q208.866 728.117 207.037 724.575 Q205.232 721.011 201.598 721.011 M201.598 717.307 Q207.408 717.307 210.463 721.913 Q213.542 726.497 213.542 735.247 Q213.542 743.973 210.463 748.58 Q207.408 753.163 201.598 753.163 Q195.787 753.163 192.709 748.58 Q189.653 743.973 189.653 735.247 Q189.653 726.497 192.709 721.913 Q195.787 717.307 201.598 717.307 Z" fill="#000000" fill-rule="evenodd" fill-opacity="1" /><path clip-path="url(#clip190)" d="M127.2 396.498 Q123.589 396.498 121.76 400.062 Q119.955 403.604 119.955 410.734 Q119.955 417.84 121.76 421.405 Q123.589 424.946 127.2 424.946 Q130.834 424.946 132.64 421.405 Q134.468 417.84 134.468 410.734 Q134.468 403.604 132.64 400.062 Q130.834 396.498 127.2 396.498 M127.2 392.794 Q133.01 392.794 136.066 397.4 Q139.144 401.984 139.144 410.734 Q139.144 419.46 136.066 424.067 Q133.01 428.65 127.2 428.65 Q121.39 428.65 118.311 424.067 Q115.256 419.46 115.256 410.734 Q115.256 401.984 118.311 397.4 Q121.39 392.794 127.2 392.794 Z" fill="#000000" fill-rule="evenodd" fill-opacity="1" /><path clip-path="url(#clip190)" d="M147.362 422.099 L152.246 422.099 L152.246 427.979 L147.362 427.979 L147.362 422.099 Z" fill="#000000" fill-rule="evenodd" fill-opacity="1" /><path clip-path="url(#clip190)" d="M161.251 393.419 L183.473 393.419 L183.473 395.41 L170.927 427.979 L166.042 427.979 L177.848 397.354 L161.251 397.354 L161.251 393.419 Z" fill="#000000" fill-rule="evenodd" fill-opacity="1" /><path clip-path="url(#clip190)" d="M192.639 393.419 L210.996 393.419 L210.996 397.354 L196.922 397.354 L196.922 405.826 Q197.94 405.479 198.959 405.317 Q199.977 405.132 200.996 405.132 Q206.783 405.132 210.162 408.303 Q213.542 411.474 213.542 416.891 Q213.542 422.47 210.07 425.571 Q206.598 428.65 200.278 428.65 Q198.102 428.65 195.834 428.28 Q193.588 427.909 191.181 427.169 L191.181 422.47 Q193.264 423.604 195.487 424.159 Q197.709 424.715 200.186 424.715 Q204.19 424.715 206.528 422.608 Q208.866 420.502 208.866 416.891 Q208.866 413.28 206.528 411.173 Q204.19 409.067 200.186 409.067 Q198.311 409.067 196.436 409.484 Q194.584 409.9 192.639 410.78 L192.639 393.419 Z" fill="#000000" fill-rule="evenodd" fill-opacity="1" /><path clip-path="url(#clip190)" d="M117.015 99.5305 L124.654 99.5305 L124.654 73.1649 L116.343 74.8316 L116.343 70.5723 L124.607 68.9057 L129.283 68.9057 L129.283 99.5305 L136.922 99.5305 L136.922 103.466 L117.015 103.466 L117.015 99.5305 Z" fill="#000000" fill-rule="evenodd" fill-opacity="1" /><path clip-path="url(#clip190)" d="M146.366 97.5861 L151.251 97.5861 L151.251 103.466 L146.366 103.466 L146.366 97.5861 Z" fill="#000000" fill-rule="evenodd" fill-opacity="1" /><path clip-path="url(#clip190)" d="M171.436 71.9844 Q167.825 71.9844 165.996 75.5492 Q164.19 79.0908 164.19 86.2204 Q164.19 93.3268 165.996 96.8916 Q167.825 100.433 171.436 100.433 Q175.07 100.433 176.876 96.8916 Q178.704 93.3268 178.704 86.2204 Q178.704 79.0908 176.876 75.5492 Q175.07 71.9844 171.436 71.9844 M171.436 68.2807 Q177.246 68.2807 180.301 72.8871 Q183.38 77.4704 183.38 86.2204 Q183.38 94.9472 180.301 99.5537 Q177.246 104.137 171.436 104.137 Q165.626 104.137 162.547 99.5537 Q159.491 94.9472 159.491 86.2204 Q159.491 77.4704 162.547 72.8871 Q165.626 68.2807 171.436 68.2807 Z" fill="#000000" fill-rule="evenodd" fill-opacity="1" /><path clip-path="url(#clip190)" d="M201.598 71.9844 Q197.987 71.9844 196.158 75.5492 Q194.352 79.0908 194.352 86.2204 Q194.352 93.3268 196.158 96.8916 Q197.987 100.433 201.598 100.433 Q205.232 100.433 207.037 96.8916 Q208.866 93.3268 208.866 86.2204 Q208.866 79.0908 207.037 75.5492 Q205.232 71.9844 201.598 71.9844 M201.598 68.2807 Q207.408 68.2807 210.463 72.8871 Q213.542 77.4704 213.542 86.2204 Q213.542 94.9472 210.463 99.5537 Q207.408 104.137 201.598 104.137 Q195.787 104.137 192.709 99.5537 Q189.653 94.9472 189.653 86.2204 Q189.653 77.4704 192.709 72.8871 Q195.787 68.2807 201.598 68.2807 Z" fill="#000000" fill-rule="evenodd" fill-opacity="1" /><path clip-path="url(#clip190)" d="M16.4842 925.244 L16.4842 918.783 L45.3526 918.783 Q52.9915 918.783 56.3653 916.014 Q59.7073 913.245 59.7073 907.038 Q59.7073 900.864 56.3653 898.094 Q52.9915 895.325 45.3526 895.325 L16.4842 895.325 L16.4842 888.864 L46.1484 888.864 Q55.4423 888.864 60.1847 893.479 Q64.9272 898.063 64.9272 907.038 Q64.9272 916.046 60.1847 920.661 Q55.4423 925.244 46.1484 925.244 L16.4842 925.244 Z" fill="#000000" fill-rule="evenodd" fill-opacity="1" /><path clip-path="url(#clip190)" d="M58.657 871.39 L77.5631 871.39 L77.5631 877.279 L28.3562 877.279 L28.3562 871.39 L33.7671 871.39 Q30.5842 869.544 29.0564 866.743 Q27.4968 863.911 27.4968 859.996 Q27.4968 853.503 32.6531 849.46 Q37.8093 845.386 46.212 845.386 Q54.6147 845.386 59.771 849.46 Q64.9272 853.503 64.9272 859.996 Q64.9272 863.911 63.3994 866.743 Q61.8398 869.544 58.657 871.39 M46.212 851.466 Q39.7508 851.466 36.0905 854.139 Q32.3984 856.781 32.3984 861.428 Q32.3984 866.075 36.0905 868.749 Q39.7508 871.39 46.212 871.39 Q52.6732 871.39 56.3653 868.749 Q60.0256 866.075 60.0256 861.428 Q60.0256 856.781 56.3653 854.139 Q52.6732 851.466 46.212 851.466 Z" fill="#000000" fill-rule="evenodd" fill-opacity="1" /><path clip-path="url(#clip190)" d="M33.7671 812.221 L14.479 812.221 L14.479 806.365 L64.0042 806.365 L64.0042 812.221 L58.657 812.221 Q61.8398 814.067 63.3994 816.9 Q64.9272 819.701 64.9272 823.648 Q64.9272 830.109 59.771 834.183 Q54.6147 838.225 46.212 838.225 Q37.8093 838.225 32.6531 834.183 Q27.4968 830.109 27.4968 823.648 Q27.4968 819.701 29.0564 816.9 Q30.5842 814.067 33.7671 812.221 M46.212 832.178 Q52.6732 832.178 56.3653 829.536 Q60.0256 826.862 60.0256 822.215 Q60.0256 817.568 56.3653 814.895 Q52.6732 812.221 46.212 812.221 Q39.7508 812.221 36.0905 814.895 Q32.3984 817.568 32.3984 822.215 Q32.3984 826.862 36.0905 829.536 Q39.7508 832.178 46.212 832.178 Z" fill="#000000" fill-rule="evenodd" fill-opacity="1" /><path clip-path="url(#clip190)" d="M46.0847 778.101 Q46.0847 785.199 47.7079 787.936 Q49.3312 790.673 53.2461 790.673 Q56.3653 790.673 58.2114 788.636 Q60.0256 786.567 60.0256 783.034 Q60.0256 778.165 56.5881 775.236 Q53.1188 772.276 47.3897 772.276 L46.0847 772.276 L46.0847 778.101 M43.6657 766.42 L64.0042 766.42 L64.0042 772.276 L58.5933 772.276 Q61.8398 774.281 63.3994 777.273 Q64.9272 780.265 64.9272 784.594 Q64.9272 790.068 61.8716 793.315 Q58.7843 796.53 53.6281 796.53 Q47.6125 796.53 44.5569 792.519 Q41.5014 788.477 41.5014 780.488 L41.5014 772.276 L40.9285 772.276 Q36.8862 772.276 34.6901 774.95 Q32.4621 777.592 32.4621 782.398 Q32.4621 785.453 33.1941 788.35 Q33.9262 791.246 35.3903 793.92 L29.9795 793.92 Q28.7381 790.705 28.1334 787.681 Q27.4968 784.658 27.4968 781.793 Q27.4968 774.059 31.5072 770.239 Q35.5176 766.42 43.6657 766.42 Z" fill="#000000" fill-rule="evenodd" fill-opacity="1" /><path clip-path="url(#clip190)" d="M18.2347 748.564 L28.3562 748.564 L28.3562 736.501 L32.9077 736.501 L32.9077 748.564 L52.2594 748.564 Q56.6199 748.564 57.8613 747.386 Q59.1026 746.177 59.1026 742.517 L59.1026 736.501 L64.0042 736.501 L64.0042 742.517 Q64.0042 749.296 61.4897 751.874 Q58.9434 754.452 52.2594 754.452 L32.9077 754.452 L32.9077 758.749 L28.3562 758.749 L28.3562 754.452 L18.2347 754.452 L18.2347 748.564 Z" fill="#000000" fill-rule="evenodd" fill-opacity="1" /><path clip-path="url(#clip190)" d="M44.7161 698.307 L47.5806 698.307 L47.5806 725.234 Q53.6281 724.852 56.8109 721.605 Q59.9619 718.327 59.9619 712.502 Q59.9619 709.128 59.1344 705.977 Q58.3069 702.795 56.6518 699.675 L62.1899 699.675 Q63.5267 702.826 64.227 706.137 Q64.9272 709.447 64.9272 712.852 Q64.9272 721.382 59.9619 726.38 Q54.9967 731.345 46.5303 731.345 Q37.7774 731.345 32.6531 726.634 Q27.4968 721.892 27.4968 713.871 Q27.4968 706.678 32.1438 702.508 Q36.7589 698.307 44.7161 698.307 M42.9973 704.163 Q38.1912 704.227 35.3266 706.869 Q32.4621 709.479 32.4621 713.807 Q32.4621 718.709 35.2312 721.669 Q38.0002 724.597 43.0292 725.043 L42.9973 704.163 Z" fill="#000000" fill-rule="evenodd" fill-opacity="1" /><path clip-path="url(#clip190)" d="M33.8307 647.317 Q33.2578 648.304 33.0032 649.482 Q32.7167 650.628 32.7167 652.028 Q32.7167 656.993 35.9632 659.667 Q39.1779 662.309 45.2253 662.309 L64.0042 662.309 L64.0042 668.197 L28.3562 668.197 L28.3562 662.309 L33.8944 662.309 Q30.6479 660.463 29.0883 657.503 Q27.4968 654.543 27.4968 650.309 Q27.4968 649.705 27.5923 648.973 Q27.656 648.241 27.8151 647.349 L33.8307 647.317 Z" fill="#000000" fill-rule="evenodd" fill-opacity="1" /><path clip-path="url(#clip190)" d="M46.0847 624.974 Q46.0847 632.072 47.7079 634.809 Q49.3312 637.546 53.2461 637.546 Q56.3653 637.546 58.2114 635.509 Q60.0256 633.44 60.0256 629.907 Q60.0256 625.038 56.5881 622.109 Q53.1188 619.149 47.3897 619.149 L46.0847 619.149 L46.0847 624.974 M43.6657 613.293 L64.0042 613.293 L64.0042 619.149 L58.5933 619.149 Q61.8398 621.154 63.3994 624.146 Q64.9272 627.138 64.9272 631.467 Q64.9272 636.941 61.8716 640.188 Q58.7843 643.403 53.6281 643.403 Q47.6125 643.403 44.5569 639.392 Q41.5014 635.35 41.5014 627.361 L41.5014 619.149 L40.9285 619.149 Q36.8862 619.149 34.6901 621.823 Q32.4621 624.465 32.4621 629.271 Q32.4621 632.326 33.1941 635.223 Q33.9262 638.119 35.3903 640.793 L29.9795 640.793 Q28.7381 637.578 28.1334 634.554 Q27.4968 631.531 27.4968 628.666 Q27.4968 620.932 31.5072 617.112 Q35.5176 613.293 43.6657 613.293 Z" fill="#000000" fill-rule="evenodd" fill-opacity="1" /><path clip-path="url(#clip190)" d="M18.2347 595.437 L28.3562 595.437 L28.3562 583.374 L32.9077 583.374 L32.9077 595.437 L52.2594 595.437 Q56.6199 595.437 57.8613 594.259 Q59.1026 593.05 59.1026 589.39 L59.1026 583.374 L64.0042 583.374 L64.0042 589.39 Q64.0042 596.169 61.4897 598.747 Q58.9434 601.325 52.2594 601.325 L32.9077 601.325 L32.9077 605.622 L28.3562 605.622 L28.3562 601.325 L18.2347 601.325 L18.2347 595.437 Z" fill="#000000" fill-rule="evenodd" fill-opacity="1" /><path clip-path="url(#clip190)" d="M44.7161 545.18 L47.5806 545.18 L47.5806 572.107 Q53.6281 571.725 56.8109 568.478 Q59.9619 565.2 59.9619 559.375 Q59.9619 556.001 59.1344 552.85 Q58.3069 549.668 56.6518 546.548 L62.1899 546.548 Q63.5267 549.699 64.227 553.01 Q64.9272 556.32 64.9272 559.725 Q64.9272 568.255 59.9619 573.252 Q54.9967 578.218 46.5303 578.218 Q37.7774 578.218 32.6531 573.507 Q27.4968 568.765 27.4968 560.744 Q27.4968 553.551 32.1438 549.381 Q36.7589 545.18 44.7161 545.18 M42.9973 551.036 Q38.1912 551.1 35.3266 553.742 Q32.4621 556.352 32.4621 560.68 Q32.4621 565.582 35.2312 568.542 Q38.0002 571.47 43.0292 571.916 L42.9973 551.036 Z" fill="#000000" fill-rule="evenodd" fill-opacity="1" /><polyline clip-path="url(#clip192)" style="stroke:#009af9; stroke-linecap:butt; stroke-linejoin:round; stroke-width:4; stroke-opacity:1; fill:none" points="
  309.067,138.108 315.703,108.253 322.339,123.829 328.975,105.656 335.611,116.041 342.247,116.041 348.883,114.743 355.519,144.598 362.155,122.531 368.791,118.637 
  375.427,184.838 382.063,125.127 388.699,109.551 395.335,116.041 401.971,130.319 408.607,139.406 415.243,112.147 421.879,131.618 428.515,117.339 435.151,121.233 
  441.787,136.81 448.423,125.127 455.059,108.253 461.695,118.637 468.331,119.935 474.967,119.935 481.603,121.233 488.239,119.935 494.875,126.425 501.511,118.637 
  508.147,118.637 514.783,113.445 521.419,116.041 528.055,110.849 534.691,125.127 541.327,114.743 547.963,113.445 554.599,118.637 561.235,140.704 567.871,113.445 
  574.507,112.147 581.143,151.088 587.779,145.896 594.415,195.222 601.051,117.339 607.687,134.214 614.323,134.214 620.959,121.233 627.595,121.233 634.231,119.935 
  640.867,149.79 647.503,245.846 654.139,218.587 660.775,240.654 667.411,204.308 674.047,297.768 680.683,170.559 687.319,705.357 693.955,238.058 700.591,148.492 
  707.227,121.233 713.863,121.233 720.499,114.743 727.135,110.849 733.771,148.492 740.407,116.041 747.043,121.233 753.679,119.935 760.315,121.233 766.951,118.637 
  773.587,126.425 780.223,114.743 786.859,127.723 793.495,118.637 800.131,123.829 806.767,116.041 813.403,143.3 820.039,127.723 826.675,149.79 833.311,113.445 
  839.947,123.829 846.583,123.829 853.219,183.54 859.855,144.598 866.491,129.021 873.127,125.127 879.763,130.319 886.399,123.829 893.035,122.531 899.671,129.021 
  906.307,122.531 912.943,114.743 919.579,126.425 926.215,123.829 932.851,123.829 939.487,153.684 946.123,142.002 952.759,118.637 959.395,123.829 966.031,116.041 
  972.667,109.551 979.303,179.645 985.939,188.732 992.575,143.3 999.211,125.127 1005.85,138.108 1012.48,147.194 1019.12,232.866 1025.75,179.645 1032.39,134.214 
  1039.03,138.108 1045.66,121.233 1052.3,135.512 1058.93,117.339 1065.57,113.445 1072.21,113.445 1078.84,110.849 1085.48,117.339 1092.11,114.743 1098.75,135.512 
  1105.39,134.214 1112.02,130.319 1118.66,121.233 1125.29,127.723 1131.93,126.425 1138.57,127.723 1145.2,119.935 1151.84,117.339 1158.47,116.041 1165.11,167.963 
  1171.75,131.618 1178.38,122.531 1185.02,251.038 1191.65,236.76 1198.29,149.79 1204.93,165.367 1211.56,149.79 1218.2,134.214 1224.83,113.445 1231.47,129.021 
  1238.11,112.147 1244.74,105.656 1251.38,123.829 1258.01,116.041 1264.65,116.041 1271.29,116.041 1277.92,136.81 1284.56,121.233 1291.19,104.358 1297.83,106.955 
  1304.47,112.147 1311.1,130.319 1317.74,109.551 1324.37,119.935 1331.01,110.849 1337.65,118.637 1344.28,116.041 1350.92,113.445 1357.55,135.512 1364.19,121.233 
  1370.83,127.723 1377.46,114.743 1384.1,129.021 1390.73,129.021 1397.37,123.829 1404.01,127.723 1410.64,140.704 1417.28,138.108 1423.91,113.445 1430.55,103.06 
  1437.19,123.829 1443.82,118.637 1450.46,127.723 1457.09,129.021 1463.73,142.002 1470.37,214.693 1477,162.771 1483.64,143.3 1490.27,123.829 1496.91,131.618 
  1503.55,126.425 1510.18,127.723 1516.82,110.849 1523.45,129.021 1530.09,121.233 1536.73,105.656 1543.36,122.531 1550,123.829 1556.63,129.021 1563.27,114.743 
  1569.91,108.253 1576.54,110.849 1583.18,106.955 1589.81,138.108 1596.45,132.916 1603.09,110.849 1609.72,132.916 1616.36,140.704 1622.99,153.684 1629.63,175.751 
  1636.27,121.233 1642.9,122.531 1649.54,114.743 1656.17,116.041 1662.81,113.445 1669.45,116.041 1676.08,130.319 1682.72,117.339 1689.35,129.021 1695.99,121.233 
  1702.63,116.041 1709.26,113.445 1715.9,123.829 1722.53,113.445 1729.17,118.637 1735.81,121.233 1742.44,106.955 1749.08,113.445 1755.71,126.425 1762.35,117.339 
  1768.99,126.425 1775.62,117.339 1782.26,136.81 1788.89,125.127 1795.53,127.723 1802.17,125.127 1808.8,114.743 1815.44,116.041 1822.07,114.743 1828.71,113.445 
  1835.35,123.829 1841.98,110.849 1848.62,110.849 1855.25,114.743 1861.89,110.849 1868.53,110.849 1875.16,122.531 1881.8,143.3 1888.43,132.916 1895.07,134.214 
  1901.71,134.214 1908.34,130.319 1914.98,225.077 1921.61,117.339 1928.25,114.743 1934.89,116.041 1941.52,138.108 1948.16,132.916 1954.79,114.743 1961.43,121.233 
  1968.07,112.147 1974.7,122.531 1981.34,130.319 1987.97,122.531 1994.61,125.127 2001.25,113.445 2007.88,116.041 2014.52,126.425 2021.15,126.425 2027.79,109.551 
  2034.43,147.194 2041.06,136.81 2047.7,116.041 2054.33,126.425 2060.97,117.339 2067.61,119.935 2074.24,109.551 2080.88,113.445 2087.51,110.849 2094.15,109.551 
  2100.79,108.253 2107.42,116.041 2114.06,138.108 2120.69,116.041 2127.33,127.723 2133.97,136.81 2140.6,121.233 2147.24,118.637 2153.87,114.743 2160.51,116.041 
  2167.15,108.253 2173.78,113.445 2180.42,139.406 2187.05,157.579 2193.69,113.445 2200.33,123.829 2206.96,131.618 2213.6,126.425 2220.23,114.743 2226.87,144.598 
  2233.51,149.79 2240.14,157.579 2246.78,117.339 2253.41,116.041 2260.05,121.233 2266.69,108.253 2273.32,117.339 2279.96,145.896 2286.59,122.531 2293.23,139.406 
  
  "/>
<polyline clip-path="url(#clip192)" style="stroke:#e26f46; stroke-linecap:butt; stroke-linejoin:round; stroke-width:4; stroke-opacity:1; fill:none" points="
  -1853.67,112.147 4455.97,112.147 
  "/>
<path clip-path="url(#clip190)" d="
M319.649 1377.32 L672.367 1377.32 L672.367 1273.64 L319.649 1273.64  Z
  " fill="#ffffff" fill-rule="evenodd" fill-opacity="1"/>
<polyline clip-path="url(#clip190)" style="stroke:#000000; stroke-linecap:butt; stroke-linejoin:round; stroke-width:4; stroke-opacity:1; fill:none" points="
  319.649,1377.32 672.367,1377.32 672.367,1273.64 319.649,1273.64 319.649,1377.32 
  "/>
<polyline clip-path="url(#clip190)" style="stroke:#e26f46; stroke-linecap:butt; stroke-linejoin:round; stroke-width:4; stroke-opacity:1; fill:none" points="
  343.018,1325.48 483.232,1325.48 
  "/>
<path clip-path="url(#clip190)" d="M506.602 1308.2 L512.898 1308.2 L528.222 1337.11 L528.222 1308.2 L532.759 1308.2 L532.759 1342.76 L526.463 1342.76 L511.139 1313.84 L511.139 1342.76 L506.602 1342.76 L506.602 1308.2 Z" fill="#000000" fill-rule="evenodd" fill-opacity="1" /><path clip-path="url(#clip190)" d="M542.967 1336.88 L547.851 1336.88 L547.851 1342.76 L542.967 1342.76 L542.967 1336.88 M542.967 1318.24 L547.851 1318.24 L547.851 1324.12 L542.967 1324.12 L542.967 1318.24 Z" fill="#000000" fill-rule="evenodd" fill-opacity="1" /><path clip-path="url(#clip190)" d="M573.569 1308.2 L591.925 1308.2 L591.925 1312.13 L577.851 1312.13 L577.851 1320.6 Q578.87 1320.26 579.888 1320.09 Q580.907 1319.91 581.925 1319.91 Q587.712 1319.91 591.092 1323.08 Q594.471 1326.25 594.471 1331.67 Q594.471 1337.25 590.999 1340.35 Q587.527 1343.43 581.208 1343.43 Q579.032 1343.43 576.763 1343.06 Q574.518 1342.69 572.11 1341.95 L572.11 1337.25 Q574.194 1338.38 576.416 1338.94 Q578.638 1339.49 581.115 1339.49 Q585.12 1339.49 587.458 1337.38 Q589.796 1335.28 589.796 1331.67 Q589.796 1328.06 587.458 1325.95 Q585.12 1323.84 581.115 1323.84 Q579.24 1323.84 577.365 1324.26 Q575.513 1324.68 573.569 1325.56 L573.569 1308.2 Z" fill="#000000" fill-rule="evenodd" fill-opacity="1" /><path clip-path="url(#clip190)" d="M613.684 1311.27 Q610.073 1311.27 608.244 1314.84 Q606.439 1318.38 606.439 1325.51 Q606.439 1332.62 608.244 1336.18 Q610.073 1339.72 613.684 1339.72 Q617.319 1339.72 619.124 1336.18 Q620.953 1332.62 620.953 1325.51 Q620.953 1318.38 619.124 1314.84 Q617.319 1311.27 613.684 1311.27 M613.684 1307.57 Q619.494 1307.57 622.55 1312.18 Q625.629 1316.76 625.629 1325.51 Q625.629 1334.24 622.55 1338.84 Q619.494 1343.43 613.684 1343.43 Q607.874 1343.43 604.795 1338.84 Q601.74 1334.24 601.74 1325.51 Q601.74 1316.76 604.795 1312.18 Q607.874 1307.57 613.684 1307.57 Z" fill="#000000" fill-rule="evenodd" fill-opacity="1" /></svg>
