<?xml version="1.0" encoding="utf-8"?>
<svg xmlns="http://www.w3.org/2000/svg" xmlns:xlink="http://www.w3.org/1999/xlink" width="600" height="400" viewBox="0 0 2400 1600">
<defs>
  <clipPath id="clip100">
    <rect x="0" y="0" width="2400" height="1600"/>
  </clipPath>
</defs>
<path clip-path="url(#clip100)" d="
M0 1600 L2400 1600 L2400 0 L0 0  Z
  " fill="#ffffff" fill-rule="evenodd" fill-opacity="1"/>
<defs>
  <clipPath id="clip101">
    <rect x="480" y="0" width="1681" height="1600"/>
  </clipPath>
</defs>
<path clip-path="url(#clip100)" d="
M147.478 1423.18 L2352.76 1423.18 L2352.76 47.2441 L147.478 47.2441  Z
  " fill="#ffffff" fill-rule="evenodd" fill-opacity="1"/>
<defs>
  <clipPath id="clip102">
    <rect x="147" y="47" width="2206" height="1377"/>
  </clipPath>
</defs>
<polyline clip-path="url(#clip102)" style="stroke:#000000; stroke-linecap:butt; stroke-linejoin:round; stroke-width:2; stroke-opacity:0.1; fill:none" points="
  202.933,1423.18 202.933,47.2441 
  "/>
<polyline clip-path="url(#clip102)" style="stroke:#000000; stroke-linecap:butt; stroke-linejoin:round; stroke-width:2; stroke-opacity:0.1; fill:none" points="
  898.736,1423.18 898.736,47.2441 
  "/>
<polyline clip-path="url(#clip102)" style="stroke:#000000; stroke-linecap:butt; stroke-linejoin:round; stroke-width:2; stroke-opacity:0.1; fill:none" points="
  1594.54,1423.18 1594.54,47.2441 
  "/>
<polyline clip-path="url(#clip102)" style="stroke:#000000; stroke-linecap:butt; stroke-linejoin:round; stroke-width:2; stroke-opacity:0.1; fill:none" points="
  2290.34,1423.18 2290.34,47.2441 
  "/>
<polyline clip-path="url(#clip100)" style="stroke:#000000; stroke-linecap:butt; stroke-linejoin:round; stroke-width:4; stroke-opacity:1; fill:none" points="
  147.478,1423.18 2352.76,1423.18 
  "/>
<polyline clip-path="url(#clip100)" style="stroke:#000000; stroke-linecap:butt; stroke-linejoin:round; stroke-width:4; stroke-opacity:1; fill:none" points="
  202.933,1423.18 202.933,1404.28 
  "/>
<polyline clip-path="url(#clip100)" style="stroke:#000000; stroke-linecap:butt; stroke-linejoin:round; stroke-width:4; stroke-opacity:1; fill:none" points="
  898.736,1423.18 898.736,1404.28 
  "/>
<polyline clip-path="url(#clip100)" style="stroke:#000000; stroke-linecap:butt; stroke-linejoin:round; stroke-width:4; stroke-opacity:1; fill:none" points="
  1594.54,1423.18 1594.54,1404.28 
  "/>
<polyline clip-path="url(#clip100)" style="stroke:#000000; stroke-linecap:butt; stroke-linejoin:round; stroke-width:4; stroke-opacity:1; fill:none" points="
  2290.34,1423.18 2290.34,1404.28 
  "/>
<path clip-path="url(#clip100)" d="M202.933 1454.1 Q199.322 1454.1 197.494 1457.66 Q195.688 1461.2 195.688 1468.33 Q195.688 1475.44 197.494 1479.01 Q199.322 1482.55 202.933 1482.55 Q206.568 1482.55 208.373 1479.01 Q210.202 1475.44 210.202 1468.33 Q210.202 1461.2 208.373 1457.66 Q206.568 1454.1 202.933 1454.1 M202.933 1450.39 Q208.744 1450.39 211.799 1455 Q214.878 1459.58 214.878 1468.33 Q214.878 1477.06 211.799 1481.67 Q208.744 1486.25 202.933 1486.25 Q197.123 1486.25 194.045 1481.67 Q190.989 1477.06 190.989 1468.33 Q190.989 1459.58 194.045 1455 Q197.123 1450.39 202.933 1450.39 Z" fill="#000000" fill-rule="evenodd" fill-opacity="1" /><path clip-path="url(#clip100)" d="M858.343 1481.64 L865.982 1481.64 L865.982 1455.28 L857.672 1456.95 L857.672 1452.69 L865.936 1451.02 L870.612 1451.02 L870.612 1481.64 L878.25 1481.64 L878.25 1485.58 L858.343 1485.58 L858.343 1481.64 Z" fill="#000000" fill-rule="evenodd" fill-opacity="1" /><path clip-path="url(#clip100)" d="M897.695 1454.1 Q894.084 1454.1 892.255 1457.66 Q890.449 1461.2 890.449 1468.33 Q890.449 1475.44 892.255 1479.01 Q894.084 1482.55 897.695 1482.55 Q901.329 1482.55 903.135 1479.01 Q904.963 1475.44 904.963 1468.33 Q904.963 1461.2 903.135 1457.66 Q901.329 1454.1 897.695 1454.1 M897.695 1450.39 Q903.505 1450.39 906.56 1455 Q909.639 1459.58 909.639 1468.33 Q909.639 1477.06 906.56 1481.67 Q903.505 1486.25 897.695 1486.25 Q891.885 1486.25 888.806 1481.67 Q885.75 1477.06 885.75 1468.33 Q885.75 1459.58 888.806 1455 Q891.885 1450.39 897.695 1450.39 Z" fill="#000000" fill-rule="evenodd" fill-opacity="1" /><path clip-path="url(#clip100)" d="M927.857 1454.1 Q924.246 1454.1 922.417 1457.66 Q920.611 1461.2 920.611 1468.33 Q920.611 1475.44 922.417 1479.01 Q924.246 1482.55 927.857 1482.55 Q931.491 1482.55 933.296 1479.01 Q935.125 1475.44 935.125 1468.33 Q935.125 1461.2 933.296 1457.66 Q931.491 1454.1 927.857 1454.1 M927.857 1450.39 Q933.667 1450.39 936.722 1455 Q939.801 1459.58 939.801 1468.33 Q939.801 1477.06 936.722 1481.67 Q933.667 1486.25 927.857 1486.25 Q922.046 1486.25 918.968 1481.67 Q915.912 1477.06 915.912 1468.33 Q915.912 1459.58 918.968 1455 Q922.046 1450.39 927.857 1450.39 Z" fill="#000000" fill-rule="evenodd" fill-opacity="1" /><path clip-path="url(#clip100)" d="M1558.23 1481.64 L1574.55 1481.64 L1574.55 1485.58 L1552.61 1485.58 L1552.61 1481.64 Q1555.27 1478.89 1559.85 1474.26 Q1564.46 1469.61 1565.64 1468.27 Q1567.88 1465.74 1568.76 1464.01 Q1569.67 1462.25 1569.67 1460.56 Q1569.67 1457.8 1567.72 1456.07 Q1565.8 1454.33 1562.7 1454.33 Q1560.5 1454.33 1558.05 1455.09 Q1555.62 1455.86 1552.84 1457.41 L1552.84 1452.69 Q1555.66 1451.55 1558.12 1450.97 Q1560.57 1450.39 1562.61 1450.39 Q1567.98 1450.39 1571.17 1453.08 Q1574.37 1455.77 1574.37 1460.26 Q1574.37 1462.39 1573.56 1464.31 Q1572.77 1466.2 1570.66 1468.8 Q1570.08 1469.47 1566.98 1472.69 Q1563.88 1475.88 1558.23 1481.64 Z" fill="#000000" fill-rule="evenodd" fill-opacity="1" /><path clip-path="url(#clip100)" d="M1594.37 1454.1 Q1590.75 1454.1 1588.93 1457.66 Q1587.12 1461.2 1587.12 1468.33 Q1587.12 1475.44 1588.93 1479.01 Q1590.75 1482.55 1594.37 1482.55 Q1598 1482.55 1599.81 1479.01 Q1601.63 1475.44 1601.63 1468.33 Q1601.63 1461.2 1599.81 1457.66 Q1598 1454.1 1594.37 1454.1 M1594.37 1450.39 Q1600.18 1450.39 1603.23 1455 Q1606.31 1459.58 1606.31 1468.33 Q1606.31 1477.06 1603.23 1481.67 Q1600.18 1486.25 1594.37 1486.25 Q1588.56 1486.25 1585.48 1481.67 Q1582.42 1477.06 1582.42 1468.33 Q1582.42 1459.58 1585.48 1455 Q1588.56 1450.39 1594.37 1450.39 Z" fill="#000000" fill-rule="evenodd" fill-opacity="1" /><path clip-path="url(#clip100)" d="M1624.53 1454.1 Q1620.92 1454.1 1619.09 1457.66 Q1617.28 1461.2 1617.28 1468.33 Q1617.28 1475.44 1619.09 1479.01 Q1620.92 1482.55 1624.53 1482.55 Q1628.16 1482.55 1629.97 1479.01 Q1631.8 1475.44 1631.8 1468.33 Q1631.8 1461.2 1629.97 1457.66 Q1628.16 1454.1 1624.53 1454.1 M1624.53 1450.39 Q1630.34 1450.39 1633.39 1455 Q1636.47 1459.58 1636.47 1468.33 Q1636.47 1477.06 1633.39 1481.67 Q1630.34 1486.25 1624.53 1486.25 Q1618.72 1486.25 1615.64 1481.67 Q1612.58 1477.06 1612.58 1468.33 Q1612.58 1459.58 1615.64 1455 Q1618.72 1450.39 1624.53 1450.39 Z" fill="#000000" fill-rule="evenodd" fill-opacity="1" /><path clip-path="url(#clip100)" d="M2264.1 1466.95 Q2267.46 1467.66 2269.34 1469.93 Q2271.23 1472.2 2271.23 1475.53 Q2271.23 1480.65 2267.72 1483.45 Q2264.2 1486.25 2257.72 1486.25 Q2255.54 1486.25 2253.22 1485.81 Q2250.93 1485.39 2248.48 1484.54 L2248.48 1480.02 Q2250.42 1481.16 2252.74 1481.74 Q2255.05 1482.32 2257.58 1482.32 Q2261.97 1482.32 2264.27 1480.58 Q2266.58 1478.84 2266.58 1475.53 Q2266.58 1472.48 2264.43 1470.77 Q2262.3 1469.03 2258.48 1469.03 L2254.45 1469.03 L2254.45 1465.19 L2258.66 1465.19 Q2262.11 1465.19 2263.94 1463.82 Q2265.77 1462.43 2265.77 1459.84 Q2265.77 1457.18 2263.87 1455.77 Q2262 1454.33 2258.48 1454.33 Q2256.56 1454.33 2254.36 1454.75 Q2252.16 1455.16 2249.52 1456.04 L2249.52 1451.88 Q2252.18 1451.14 2254.5 1450.77 Q2256.84 1450.39 2258.9 1450.39 Q2264.22 1450.39 2267.32 1452.83 Q2270.42 1455.23 2270.42 1459.35 Q2270.42 1462.22 2268.78 1464.21 Q2267.14 1466.18 2264.1 1466.95 Z" fill="#000000" fill-rule="evenodd" fill-opacity="1" /><path clip-path="url(#clip100)" d="M2290.1 1454.1 Q2286.49 1454.1 2284.66 1457.66 Q2282.85 1461.2 2282.85 1468.33 Q2282.85 1475.44 2284.66 1479.01 Q2286.49 1482.55 2290.1 1482.55 Q2293.73 1482.55 2295.54 1479.01 Q2297.37 1475.44 2297.37 1468.33 Q2297.37 1461.2 2295.54 1457.66 Q2293.73 1454.1 2290.1 1454.1 M2290.1 1450.39 Q2295.91 1450.39 2298.97 1455 Q2302.04 1459.58 2302.04 1468.33 Q2302.04 1477.06 2298.97 1481.67 Q2295.91 1486.25 2290.1 1486.25 Q2284.29 1486.25 2281.21 1481.67 Q2278.15 1477.06 2278.15 1468.33 Q2278.15 1459.58 2281.21 1455 Q2284.29 1450.39 2290.1 1450.39 Z" fill="#000000" fill-rule="evenodd" fill-opacity="1" /><path clip-path="url(#clip100)" d="M2320.26 1454.1 Q2316.65 1454.1 2314.82 1457.66 Q2313.02 1461.2 2313.02 1468.33 Q2313.02 1475.44 2314.82 1479.01 Q2316.65 1482.55 2320.26 1482.55 Q2323.9 1482.55 2325.7 1479.01 Q2327.53 1475.44 2327.53 1468.33 Q2327.53 1461.2 2325.7 1457.66 Q2323.9 1454.1 2320.26 1454.1 M2320.26 1450.39 Q2326.07 1450.39 2329.13 1455 Q2332.21 1459.58 2332.21 1468.33 Q2332.21 1477.06 2329.13 1481.67 Q2326.07 1486.25 2320.26 1486.25 Q2314.45 1486.25 2311.37 1481.67 Q2308.32 1477.06 2308.32 1468.33 Q2308.32 1459.58 2311.37 1455 Q2314.45 1450.39 2320.26 1450.39 Z" fill="#000000" fill-rule="evenodd" fill-opacity="1" /><path clip-path="url(#clip100)" d="M1249.18 1522.27 L1249.18 1532.4 L1261.24 1532.4 L1261.24 1536.95 L1249.18 1536.95 L1249.18 1556.3 Q1249.18 1560.66 1250.36 1561.9 Q1251.57 1563.14 1255.23 1563.14 L1261.24 1563.14 L1261.24 1568.04 L1255.23 1568.04 Q1248.45 1568.04 1245.87 1565.53 Q1243.29 1562.98 1243.29 1556.3 L1243.29 1536.95 L1238.99 1536.95 L1238.99 1532.4 L1243.29 1532.4 L1243.29 1522.27 L1249.18 1522.27 Z" fill="#000000" fill-rule="evenodd" fill-opacity="1" /><polyline clip-path="url(#clip102)" style="stroke:#000000; stroke-linecap:butt; stroke-linejoin:round; stroke-width:2; stroke-opacity:0.1; fill:none" points="
  147.478,1270.48 2352.76,1270.48 
  "/>
<polyline clip-path="url(#clip102)" style="stroke:#000000; stroke-linecap:butt; stroke-linejoin:round; stroke-width:2; stroke-opacity:0.1; fill:none" points="
  147.478,984.3 2352.76,984.3 
  "/>
<polyline clip-path="url(#clip102)" style="stroke:#000000; stroke-linecap:butt; stroke-linejoin:round; stroke-width:2; stroke-opacity:0.1; fill:none" points="
  147.478,698.115 2352.76,698.115 
  "/>
<polyline clip-path="url(#clip102)" style="stroke:#000000; stroke-linecap:butt; stroke-linejoin:round; stroke-width:2; stroke-opacity:0.1; fill:none" points="
  147.478,411.93 2352.76,411.93 
  "/>
<polyline clip-path="url(#clip102)" style="stroke:#000000; stroke-linecap:butt; stroke-linejoin:round; stroke-width:2; stroke-opacity:0.1; fill:none" points="
  147.478,125.746 2352.76,125.746 
  "/>
<polyline clip-path="url(#clip100)" style="stroke:#000000; stroke-linecap:butt; stroke-linejoin:round; stroke-width:4; stroke-opacity:1; fill:none" points="
  147.478,1423.18 147.478,47.2441 
  "/>
<polyline clip-path="url(#clip100)" style="stroke:#000000; stroke-linecap:butt; stroke-linejoin:round; stroke-width:4; stroke-opacity:1; fill:none" points="
  147.478,1270.48 166.376,1270.48 
  "/>
<polyline clip-path="url(#clip100)" style="stroke:#000000; stroke-linecap:butt; stroke-linejoin:round; stroke-width:4; stroke-opacity:1; fill:none" points="
  147.478,984.3 166.376,984.3 
  "/>
<polyline clip-path="url(#clip100)" style="stroke:#000000; stroke-linecap:butt; stroke-linejoin:round; stroke-width:4; stroke-opacity:1; fill:none" points="
  147.478,698.115 166.376,698.115 
  "/>
<polyline clip-path="url(#clip100)" style="stroke:#000000; stroke-linecap:butt; stroke-linejoin:round; stroke-width:4; stroke-opacity:1; fill:none" points="
  147.478,411.93 166.376,411.93 
  "/>
<polyline clip-path="url(#clip100)" style="stroke:#000000; stroke-linecap:butt; stroke-linejoin:round; stroke-width:4; stroke-opacity:1; fill:none" points="
  147.478,125.746 166.376,125.746 
  "/>
<path clip-path="url(#clip100)" d="M51.3625 1270.94 L81.0383 1270.94 L81.0383 1274.87 L51.3625 1274.87 L51.3625 1270.94 Z" fill="#000000" fill-rule="evenodd" fill-opacity="1" /><path clip-path="url(#clip100)" d="M95.1586 1283.83 L111.478 1283.83 L111.478 1287.76 L89.5336 1287.76 L89.5336 1283.83 Q92.1956 1281.07 96.7789 1276.45 Q101.385 1271.79 102.566 1270.45 Q104.811 1267.93 105.691 1266.19 Q106.594 1264.43 106.594 1262.74 Q106.594 1259.99 104.649 1258.25 Q102.728 1256.51 99.6261 1256.51 Q97.4271 1256.51 94.9734 1257.28 Q92.5428 1258.04 89.7651 1259.59 L89.7651 1254.87 Q92.5891 1253.74 95.0428 1253.16 Q97.4965 1252.58 99.5335 1252.58 Q104.904 1252.58 108.098 1255.26 Q111.293 1257.95 111.293 1262.44 Q111.293 1264.57 110.483 1266.49 Q109.696 1268.39 107.589 1270.98 Q107.01 1271.65 103.909 1274.87 Q100.807 1278.07 95.1586 1283.83 Z" fill="#000000" fill-rule="evenodd" fill-opacity="1" /><path clip-path="url(#clip100)" d="M50.9921 984.751 L80.6679 984.751 L80.6679 988.686 L50.9921 988.686 L50.9921 984.751 Z" fill="#000000" fill-rule="evenodd" fill-opacity="1" /><path clip-path="url(#clip100)" d="M91.5706 997.645 L99.2095 997.645 L99.2095 971.279 L90.8993 972.946 L90.8993 968.686 L99.1632 967.02 L103.839 967.02 L103.839 997.645 L111.478 997.645 L111.478 1001.58 L91.5706 1001.58 L91.5706 997.645 Z" fill="#000000" fill-rule="evenodd" fill-opacity="1" /><path clip-path="url(#clip100)" d="M99.5335 683.914 Q95.9224 683.914 94.0937 687.479 Q92.2882 691.02 92.2882 698.15 Q92.2882 705.256 94.0937 708.821 Q95.9224 712.363 99.5335 712.363 Q103.168 712.363 104.973 708.821 Q106.802 705.256 106.802 698.15 Q106.802 691.02 104.973 687.479 Q103.168 683.914 99.5335 683.914 M99.5335 680.21 Q105.344 680.21 108.399 684.816 Q111.478 689.4 111.478 698.15 Q111.478 706.877 108.399 711.483 Q105.344 716.066 99.5335 716.066 Q93.7234 716.066 90.6447 711.483 Q87.5892 706.877 87.5892 698.15 Q87.5892 689.4 90.6447 684.816 Q93.7234 680.21 99.5335 680.21 Z" fill="#000000" fill-rule="evenodd" fill-opacity="1" /><path clip-path="url(#clip100)" d="M91.5706 425.275 L99.2095 425.275 L99.2095 398.91 L90.8993 400.576 L90.8993 396.317 L99.1632 394.65 L103.839 394.65 L103.839 425.275 L111.478 425.275 L111.478 429.21 L91.5706 429.21 L91.5706 425.275 Z" fill="#000000" fill-rule="evenodd" fill-opacity="1" /><path clip-path="url(#clip100)" d="M95.1586 139.09 L111.478 139.09 L111.478 143.026 L89.5336 143.026 L89.5336 139.09 Q92.1956 136.336 96.7789 131.706 Q101.385 127.053 102.566 125.711 Q104.811 123.188 105.691 121.452 Q106.594 119.692 106.594 118.002 Q106.594 115.248 104.649 113.512 Q102.728 111.776 99.6261 111.776 Q97.4271 111.776 94.9734 112.54 Q92.5428 113.303 89.7651 114.854 L89.7651 110.132 Q92.5891 108.998 95.0428 108.419 Q97.4965 107.841 99.5335 107.841 Q104.904 107.841 108.098 110.526 Q111.293 113.211 111.293 117.702 Q111.293 119.831 110.483 121.752 Q109.696 123.651 107.589 126.243 Q107.01 126.914 103.909 130.132 Q100.807 133.326 95.1586 139.09 Z" fill="#000000" fill-rule="evenodd" fill-opacity="1" /><polyline clip-path="url(#clip102)" style="stroke:#000000; stroke-linecap:butt; stroke-linejoin:round; stroke-width:4; stroke-opacity:1; fill:none" points="
  209.891,857.48 216.849,871.479 223.808,810.935 230.766,640.922 237.724,692.962 244.682,643.717 251.64,767.89 258.598,765.521 265.556,687.709 272.514,699.6 
  279.472,806.76 286.43,909.253 293.388,894.623 300.346,825.182 307.304,733.241 314.262,885.388 321.22,792.834 328.178,765.77 335.136,852.339 342.094,907.68 
  349.052,794.118 356.01,738.367 362.968,706.767 369.926,527.51 376.884,502.042 383.842,633.4 390.8,600.912 397.758,731.518 404.716,688.395 411.674,653.349 
  418.632,750.275 425.59,883.42 432.548,1024.53 439.506,872.397 446.464,799.055 453.422,844.715 460.381,722.877 467.339,657.823 474.297,900.008 481.255,919.883 
  488.213,842.677 495.171,768.728 502.129,691.402 509.087,513.405 516.045,414.316 523.003,463.458 529.961,397.902 536.919,420.231 543.877,474.99 550.835,477.04 
  557.793,543.66 564.751,647.701 571.709,665.956 578.667,816.583 585.625,1053.35 592.583,1167.88 599.541,1290.62 606.499,1340.73 613.457,1315.89 620.415,1310.32 
  627.373,1342.93 634.331,1384.24 641.289,1213.61 648.247,1259.56 655.205,1126.15 662.163,1021 669.121,960.195 676.079,803.442 683.037,852.549 689.996,850.294 
  696.954,922.005 703.912,844.23 710.87,886.542 717.828,755.035 724.786,731.58 731.744,712.659 738.702,673.195 745.66,570.198 752.618,970.945 759.576,826.273 
  766.534,930.432 773.492,1014.64 780.45,911.159 787.408,871.538 794.366,1044.6 801.324,1094.07 808.282,1104.11 815.24,1090.02 822.198,1129.79 829.156,1011.35 
  836.114,941.089 843.072,932.559 850.03,786.674 856.988,969.57 863.946,930.678 870.904,743.008 877.862,772.294 884.82,792.911 891.778,753.814 898.736,669.625 
  905.694,741.641 912.652,600.5 919.61,442.53 926.569,387.111 933.527,429.612 940.485,390.338 947.443,325.61 954.401,173.68 961.359,242.677 968.317,233.213 
  975.275,86.1857 982.233,255.733 989.191,202.49 996.149,235.934 1003.11,312.789 1010.06,262.25 1017.02,237.76 1023.98,240.139 1030.94,354.123 1037.9,453.941 
  1044.86,391.877 1051.81,185.571 1058.77,363.699 1065.73,421.321 1072.69,443.797 1079.65,376.147 1086.6,432.513 1093.56,612.763 1100.52,684.439 1107.48,716.884 
  1114.44,708.788 1121.39,817.42 1128.35,909.381 1135.31,866.257 1142.27,888.229 1149.23,964.876 1156.18,1013.52 1163.14,905.974 1170.1,852.452 1177.06,827.22 
  1184.02,734.314 1190.97,644.437 1197.93,809.429 1204.89,724.427 1211.85,646.888 1218.81,621.468 1225.76,681.606 1232.72,673.025 1239.68,791.412 1246.64,809.645 
  1253.6,707.912 1260.55,633.788 1267.51,678.596 1274.47,700.509 1281.43,751.544 1288.39,755.619 1295.34,704.406 1302.3,828.271 1309.26,878.681 1316.22,707.326 
  1323.18,725.85 1330.13,654.049 1337.09,708.917 1344.05,713.247 1351.01,683.438 1357.97,856.886 1364.92,964.796 1371.88,956.063 1378.84,1031 1385.8,1006.69 
  1392.76,1029.01 1399.71,985.815 1406.67,937.292 1413.63,860.083 1420.59,895.746 1427.55,1000.11 1434.5,966.962 1441.46,1021.21 1448.42,1036.89 1455.38,1037.19 
  1462.34,999.649 1469.29,950.964 1476.25,835.6 1483.21,798.112 1490.17,930.706 1497.13,771.255 1504.09,747.981 1511.04,891.21 1518,958.296 1524.96,959.026 
  1531.92,924.008 1538.88,962.64 1545.83,976.865 1552.79,912.923 1559.75,1030.11 1566.71,1072.56 1573.67,944.725 1580.62,920.603 1587.58,970.607 1594.54,934.144 
  1601.5,921.129 1608.46,887.913 1615.41,942.802 1622.37,840.36 1629.33,710.599 1636.29,627.021 1643.25,741.546 1650.2,682.185 1657.16,621.4 1664.12,659.996 
  1671.08,632.205 1678.04,580.739 1684.99,674.081 1691.95,780.398 1698.91,775.189 1705.87,800.575 1712.83,731.152 1719.78,609.997 1726.74,762.283 1733.7,584.618 
  1740.66,722.493 1747.62,703.393 1754.57,683.485 1761.53,651.053 1768.49,662.53 1775.45,788.883 1782.41,595.785 1789.36,466.604 1796.32,465.843 1803.28,516.43 
  1810.24,616.911 1817.2,652.205 1824.15,661.581 1831.11,621.065 1838.07,578.618 1845.03,684.308 1851.99,713.696 1858.94,594.559 1865.9,658.597 1872.86,609.269 
  1879.82,515.328 1886.78,459.394 1893.73,493.298 1900.69,322.945 1907.65,327.087 1914.61,355.577 1921.57,308.521 1928.52,129.514 1935.48,191.851 1942.44,300.134 
  1949.4,258.403 1956.36,466.255 1963.31,615.678 1970.27,579.55 1977.23,571.7 1984.19,587.041 1991.15,541.521 1998.11,518.146 2005.06,445.979 2012.02,547.946 
  2018.98,428.554 2025.94,439.393 2032.9,368.515 2039.85,340.41 2046.81,338.389 2053.77,242.554 2060.73,256.131 2067.69,312.207 2074.64,465.493 2081.6,460.582 
  2088.56,599.119 2095.52,471.2 2102.48,384.573 2109.43,607.598 2116.39,632.077 2123.35,765.941 2130.31,683.637 2137.27,573.46 2144.22,389.781 2151.18,436.519 
  2158.14,641.432 2165.1,625.297 2172.06,547.757 2179.01,432.913 2185.97,428.182 2192.93,447.786 2199.89,544.005 2206.85,500.945 2213.8,456.211 2220.76,540.691 
  2227.72,652.788 2234.68,634.889 2241.64,619.847 2248.59,672.797 2255.55,757.316 2262.51,964.521 2269.47,972.602 2276.43,1046.24 2283.38,833.916 2290.34,779.728 
  
  "/>
<path clip-path="url(#clip100)" d="
M2009.08 196.789 L2279.25 196.789 L2279.25 93.1086 L2009.08 93.1086  Z
  " fill="#ffffff" fill-rule="evenodd" fill-opacity="1"/>
<polyline clip-path="url(#clip100)" style="stroke:#000000; stroke-linecap:butt; stroke-linejoin:round; stroke-width:4; stroke-opacity:1; fill:none" points="
  2009.08,196.789 2279.25,196.789 2279.25,93.1086 2009.08,93.1086 2009.08,196.789 
  "/>
<polyline clip-path="url(#clip100)" style="stroke:#000000; stroke-linecap:butt; stroke-linejoin:round; stroke-width:4; stroke-opacity:1; fill:none" points="
  2033.58,144.949 2180.6,144.949 
  "/>
<path clip-path="url(#clip100)" d="M2229.75 136.303 L2220.38 148.919 L2230.24 162.229 L2225.22 162.229 L2217.67 152.043 L2210.12 162.229 L2205.1 162.229 L2215.17 148.664 L2205.96 136.303 L2210.98 136.303 L2217.86 145.539 L2224.73 136.303 L2229.75 136.303 Z" fill="#000000" fill-rule="evenodd" fill-opacity="1" /></svg>
