<?xml version="1.0" encoding="utf-8"?>
<svg xmlns="http://www.w3.org/2000/svg" xmlns:xlink="http://www.w3.org/1999/xlink" width="600" height="400" viewBox="0 0 2400 1600">
<defs>
  <clipPath id="clip130">
    <rect x="0" y="0" width="2400" height="1600"/>
  </clipPath>
</defs>
<path clip-path="url(#clip130)" d="
M0 1600 L2400 1600 L2400 0 L0 0  Z
  " fill="#ffffff" fill-rule="evenodd" fill-opacity="1"/>
<defs>
  <clipPath id="clip131">
    <rect x="480" y="0" width="1681" height="1600"/>
  </clipPath>
</defs>
<path clip-path="url(#clip130)" d="
M149.191 1423.18 L2352.76 1423.18 L2352.76 47.2441 L149.191 47.2441  Z
  " fill="#ffffff" fill-rule="evenodd" fill-opacity="1"/>
<defs>
  <clipPath id="clip132">
    <rect x="149" y="47" width="2205" height="1377"/>
  </clipPath>
</defs>
<polyline clip-path="url(#clip132)" style="stroke:#000000; stroke-linecap:butt; stroke-linejoin:round; stroke-width:2; stroke-opacity:0.1; fill:none" points="
  204.603,1423.18 204.603,47.2441 
  "/>
<polyline clip-path="url(#clip132)" style="stroke:#000000; stroke-linecap:butt; stroke-linejoin:round; stroke-width:2; stroke-opacity:0.1; fill:none" points="
  899.866,1423.18 899.866,47.2441 
  "/>
<polyline clip-path="url(#clip132)" style="stroke:#000000; stroke-linecap:butt; stroke-linejoin:round; stroke-width:2; stroke-opacity:0.1; fill:none" points="
  1595.13,1423.18 1595.13,47.2441 
  "/>
<polyline clip-path="url(#clip132)" style="stroke:#000000; stroke-linecap:butt; stroke-linejoin:round; stroke-width:2; stroke-opacity:0.1; fill:none" points="
  2290.39,1423.18 2290.39,47.2441 
  "/>
<polyline clip-path="url(#clip130)" style="stroke:#000000; stroke-linecap:butt; stroke-linejoin:round; stroke-width:4; stroke-opacity:1; fill:none" points="
  149.191,1423.18 2352.76,1423.18 
  "/>
<polyline clip-path="url(#clip130)" style="stroke:#000000; stroke-linecap:butt; stroke-linejoin:round; stroke-width:4; stroke-opacity:1; fill:none" points="
  204.603,1423.18 204.603,1404.28 
  "/>
<polyline clip-path="url(#clip130)" style="stroke:#000000; stroke-linecap:butt; stroke-linejoin:round; stroke-width:4; stroke-opacity:1; fill:none" points="
  899.866,1423.18 899.866,1404.28 
  "/>
<polyline clip-path="url(#clip130)" style="stroke:#000000; stroke-linecap:butt; stroke-linejoin:round; stroke-width:4; stroke-opacity:1; fill:none" points="
  1595.13,1423.18 1595.13,1404.28 
  "/>
<polyline clip-path="url(#clip130)" style="stroke:#000000; stroke-linecap:butt; stroke-linejoin:round; stroke-width:4; stroke-opacity:1; fill:none" points="
  2290.39,1423.18 2290.39,1404.28 
  "/>
<path clip-path="url(#clip130)" d="M204.603 1454.1 Q200.992 1454.1 199.164 1457.66 Q197.358 1461.2 197.358 1468.33 Q197.358 1475.44 199.164 1479.01 Q200.992 1482.55 204.603 1482.55 Q208.238 1482.55 210.043 1479.01 Q211.872 1475.44 211.872 1468.33 Q211.872 1461.2 210.043 1457.66 Q208.238 1454.1 204.603 1454.1 M204.603 1450.39 Q210.413 1450.39 213.469 1455 Q216.548 1459.58 216.548 1468.33 Q216.548 1477.06 213.469 1481.67 Q210.413 1486.25 204.603 1486.25 Q198.793 1486.25 195.714 1481.67 Q192.659 1477.06 192.659 1468.33 Q192.659 1459.58 195.714 1455 Q198.793 1450.39 204.603 1450.39 Z" fill="#000000" fill-rule="evenodd" fill-opacity="1" /><path clip-path="url(#clip130)" d="M859.473 1481.64 L867.111 1481.64 L867.111 1455.28 L858.801 1456.95 L858.801 1452.69 L867.065 1451.02 L871.741 1451.02 L871.741 1481.64 L879.38 1481.64 L879.38 1485.58 L859.473 1485.58 L859.473 1481.64 Z" fill="#000000" fill-rule="evenodd" fill-opacity="1" /><path clip-path="url(#clip130)" d="M898.824 1454.1 Q895.213 1454.1 893.384 1457.66 Q891.579 1461.2 891.579 1468.33 Q891.579 1475.44 893.384 1479.01 Q895.213 1482.55 898.824 1482.55 Q902.458 1482.55 904.264 1479.01 Q906.093 1475.44 906.093 1468.33 Q906.093 1461.2 904.264 1457.66 Q902.458 1454.1 898.824 1454.1 M898.824 1450.39 Q904.634 1450.39 907.69 1455 Q910.769 1459.58 910.769 1468.33 Q910.769 1477.06 907.69 1481.67 Q904.634 1486.25 898.824 1486.25 Q893.014 1486.25 889.935 1481.67 Q886.88 1477.06 886.88 1468.33 Q886.88 1459.58 889.935 1455 Q893.014 1450.39 898.824 1450.39 Z" fill="#000000" fill-rule="evenodd" fill-opacity="1" /><path clip-path="url(#clip130)" d="M928.986 1454.1 Q925.375 1454.1 923.546 1457.66 Q921.741 1461.2 921.741 1468.33 Q921.741 1475.44 923.546 1479.01 Q925.375 1482.55 928.986 1482.55 Q932.62 1482.55 934.426 1479.01 Q936.255 1475.44 936.255 1468.33 Q936.255 1461.2 934.426 1457.66 Q932.62 1454.1 928.986 1454.1 M928.986 1450.39 Q934.796 1450.39 937.852 1455 Q940.93 1459.58 940.93 1468.33 Q940.93 1477.06 937.852 1481.67 Q934.796 1486.25 928.986 1486.25 Q923.176 1486.25 920.097 1481.67 Q917.042 1477.06 917.042 1468.33 Q917.042 1459.58 920.097 1455 Q923.176 1450.39 928.986 1450.39 Z" fill="#000000" fill-rule="evenodd" fill-opacity="1" /><path clip-path="url(#clip130)" d="M1558.82 1481.64 L1575.14 1481.64 L1575.14 1485.58 L1553.2 1485.58 L1553.2 1481.64 Q1555.86 1478.89 1560.44 1474.26 Q1565.05 1469.61 1566.23 1468.27 Q1568.47 1465.74 1569.35 1464.01 Q1570.26 1462.25 1570.26 1460.56 Q1570.26 1457.8 1568.31 1456.07 Q1566.39 1454.33 1563.29 1454.33 Q1561.09 1454.33 1558.64 1455.09 Q1556.2 1455.86 1553.43 1457.41 L1553.43 1452.69 Q1556.25 1451.55 1558.7 1450.97 Q1561.16 1450.39 1563.2 1450.39 Q1568.57 1450.39 1571.76 1453.08 Q1574.95 1455.77 1574.95 1460.26 Q1574.95 1462.39 1574.14 1464.31 Q1573.36 1466.2 1571.25 1468.8 Q1570.67 1469.47 1567.57 1472.69 Q1564.47 1475.88 1558.82 1481.64 Z" fill="#000000" fill-rule="evenodd" fill-opacity="1" /><path clip-path="url(#clip130)" d="M1594.95 1454.1 Q1591.34 1454.1 1589.51 1457.66 Q1587.71 1461.2 1587.71 1468.33 Q1587.71 1475.44 1589.51 1479.01 Q1591.34 1482.55 1594.95 1482.55 Q1598.59 1482.55 1600.39 1479.01 Q1602.22 1475.44 1602.22 1468.33 Q1602.22 1461.2 1600.39 1457.66 Q1598.59 1454.1 1594.95 1454.1 M1594.95 1450.39 Q1600.76 1450.39 1603.82 1455 Q1606.9 1459.58 1606.9 1468.33 Q1606.9 1477.06 1603.82 1481.67 Q1600.76 1486.25 1594.95 1486.25 Q1589.14 1486.25 1586.07 1481.67 Q1583.01 1477.06 1583.01 1468.33 Q1583.01 1459.58 1586.07 1455 Q1589.14 1450.39 1594.95 1450.39 Z" fill="#000000" fill-rule="evenodd" fill-opacity="1" /><path clip-path="url(#clip130)" d="M1625.12 1454.1 Q1621.51 1454.1 1619.68 1457.66 Q1617.87 1461.2 1617.87 1468.33 Q1617.87 1475.44 1619.68 1479.01 Q1621.51 1482.55 1625.12 1482.55 Q1628.75 1482.55 1630.56 1479.01 Q1632.39 1475.44 1632.39 1468.33 Q1632.39 1461.2 1630.56 1457.66 Q1628.75 1454.1 1625.12 1454.1 M1625.12 1450.39 Q1630.93 1450.39 1633.98 1455 Q1637.06 1459.58 1637.06 1468.33 Q1637.06 1477.06 1633.98 1481.67 Q1630.93 1486.25 1625.12 1486.25 Q1619.31 1486.25 1616.23 1481.67 Q1613.17 1477.06 1613.17 1468.33 Q1613.17 1459.58 1616.23 1455 Q1619.31 1450.39 1625.12 1450.39 Z" fill="#000000" fill-rule="evenodd" fill-opacity="1" /><path clip-path="url(#clip130)" d="M2264.15 1466.95 Q2267.51 1467.66 2269.38 1469.93 Q2271.28 1472.2 2271.28 1475.53 Q2271.28 1480.65 2267.76 1483.45 Q2264.25 1486.25 2257.76 1486.25 Q2255.59 1486.25 2253.27 1485.81 Q2250.98 1485.39 2248.53 1484.54 L2248.53 1480.02 Q2250.47 1481.16 2252.79 1481.74 Q2255.1 1482.32 2257.62 1482.32 Q2262.02 1482.32 2264.31 1480.58 Q2266.63 1478.84 2266.63 1475.53 Q2266.63 1472.48 2264.48 1470.77 Q2262.35 1469.03 2258.53 1469.03 L2254.5 1469.03 L2254.5 1465.19 L2258.71 1465.19 Q2262.16 1465.19 2263.99 1463.82 Q2265.82 1462.43 2265.82 1459.84 Q2265.82 1457.18 2263.92 1455.77 Q2262.05 1454.33 2258.53 1454.33 Q2256.61 1454.33 2254.41 1454.75 Q2252.21 1455.16 2249.57 1456.04 L2249.57 1451.88 Q2252.23 1451.14 2254.55 1450.77 Q2256.88 1450.39 2258.94 1450.39 Q2264.27 1450.39 2267.37 1452.83 Q2270.47 1455.23 2270.47 1459.35 Q2270.47 1462.22 2268.83 1464.21 Q2267.18 1466.18 2264.15 1466.95 Z" fill="#000000" fill-rule="evenodd" fill-opacity="1" /><path clip-path="url(#clip130)" d="M2290.15 1454.1 Q2286.54 1454.1 2284.71 1457.66 Q2282.9 1461.2 2282.9 1468.33 Q2282.9 1475.44 2284.71 1479.01 Q2286.54 1482.55 2290.15 1482.55 Q2293.78 1482.55 2295.59 1479.01 Q2297.42 1475.44 2297.42 1468.33 Q2297.42 1461.2 2295.59 1457.66 Q2293.78 1454.1 2290.15 1454.1 M2290.15 1450.39 Q2295.96 1450.39 2299.01 1455 Q2302.09 1459.58 2302.09 1468.33 Q2302.09 1477.06 2299.01 1481.67 Q2295.96 1486.25 2290.15 1486.25 Q2284.34 1486.25 2281.26 1481.67 Q2278.2 1477.06 2278.2 1468.33 Q2278.2 1459.58 2281.26 1455 Q2284.34 1450.39 2290.15 1450.39 Z" fill="#000000" fill-rule="evenodd" fill-opacity="1" /><path clip-path="url(#clip130)" d="M2320.31 1454.1 Q2316.7 1454.1 2314.87 1457.66 Q2313.06 1461.2 2313.06 1468.33 Q2313.06 1475.44 2314.87 1479.01 Q2316.7 1482.55 2320.31 1482.55 Q2323.94 1482.55 2325.75 1479.01 Q2327.58 1475.44 2327.58 1468.33 Q2327.58 1461.2 2325.75 1457.66 Q2323.94 1454.1 2320.31 1454.1 M2320.31 1450.39 Q2326.12 1450.39 2329.18 1455 Q2332.25 1459.58 2332.25 1468.33 Q2332.25 1477.06 2329.18 1481.67 Q2326.12 1486.25 2320.31 1486.25 Q2314.5 1486.25 2311.42 1481.67 Q2308.37 1477.06 2308.37 1468.33 Q2308.37 1459.58 2311.42 1455 Q2314.5 1450.39 2320.31 1450.39 Z" fill="#000000" fill-rule="evenodd" fill-opacity="1" /><path clip-path="url(#clip130)" d="M1267.59 1532.4 L1254.7 1549.74 L1268.26 1568.04 L1261.35 1568.04 L1250.97 1554.04 L1240.6 1568.04 L1233.69 1568.04 L1247.54 1549.39 L1234.87 1532.4 L1241.77 1532.4 L1251.23 1545.1 L1260.68 1532.4 L1267.59 1532.4 Z" fill="#000000" fill-rule="evenodd" fill-opacity="1" /><polyline clip-path="url(#clip132)" style="stroke:#000000; stroke-linecap:butt; stroke-linejoin:round; stroke-width:2; stroke-opacity:0.1; fill:none" points="
  149.191,1356.44 2352.76,1356.44 
  "/>
<polyline clip-path="url(#clip132)" style="stroke:#000000; stroke-linecap:butt; stroke-linejoin:round; stroke-width:2; stroke-opacity:0.1; fill:none" points="
  149.191,996.811 2352.76,996.811 
  "/>
<polyline clip-path="url(#clip132)" style="stroke:#000000; stroke-linecap:butt; stroke-linejoin:round; stroke-width:2; stroke-opacity:0.1; fill:none" points="
  149.191,637.181 2352.76,637.181 
  "/>
<polyline clip-path="url(#clip132)" style="stroke:#000000; stroke-linecap:butt; stroke-linejoin:round; stroke-width:2; stroke-opacity:0.1; fill:none" points="
  149.191,277.55 2352.76,277.55 
  "/>
<polyline clip-path="url(#clip130)" style="stroke:#000000; stroke-linecap:butt; stroke-linejoin:round; stroke-width:4; stroke-opacity:1; fill:none" points="
  149.191,1423.18 149.191,47.2441 
  "/>
<polyline clip-path="url(#clip130)" style="stroke:#000000; stroke-linecap:butt; stroke-linejoin:round; stroke-width:4; stroke-opacity:1; fill:none" points="
  149.191,1356.44 168.089,1356.44 
  "/>
<polyline clip-path="url(#clip130)" style="stroke:#000000; stroke-linecap:butt; stroke-linejoin:round; stroke-width:4; stroke-opacity:1; fill:none" points="
  149.191,996.811 168.089,996.811 
  "/>
<polyline clip-path="url(#clip130)" style="stroke:#000000; stroke-linecap:butt; stroke-linejoin:round; stroke-width:4; stroke-opacity:1; fill:none" points="
  149.191,637.181 168.089,637.181 
  "/>
<polyline clip-path="url(#clip130)" style="stroke:#000000; stroke-linecap:butt; stroke-linejoin:round; stroke-width:4; stroke-opacity:1; fill:none" points="
  149.191,277.55 168.089,277.55 
  "/>
<path clip-path="url(#clip130)" d="M50.9921 1356.89 L80.6679 1356.89 L80.6679 1360.83 L50.9921 1360.83 L50.9921 1356.89 Z" fill="#000000" fill-rule="evenodd" fill-opacity="1" /><path clip-path="url(#clip130)" d="M103.608 1343.24 L91.8021 1361.69 L103.608 1361.69 L103.608 1343.24 M102.381 1339.16 L108.26 1339.16 L108.26 1361.69 L113.191 1361.69 L113.191 1365.57 L108.26 1365.57 L108.26 1373.72 L103.608 1373.72 L103.608 1365.57 L88.0058 1365.57 L88.0058 1361.06 L102.381 1339.16 Z" fill="#000000" fill-rule="evenodd" fill-opacity="1" /><path clip-path="url(#clip130)" d="M53.0754 997.263 L82.7512 997.263 L82.7512 1001.2 L53.0754 1001.2 L53.0754 997.263 Z" fill="#000000" fill-rule="evenodd" fill-opacity="1" /><path clip-path="url(#clip130)" d="M96.8715 1010.16 L113.191 1010.16 L113.191 1014.09 L91.2465 1014.09 L91.2465 1010.16 Q93.9086 1007.4 98.4919 1002.77 Q103.098 998.119 104.279 996.777 Q106.524 994.254 107.404 992.517 Q108.307 990.758 108.307 989.068 Q108.307 986.314 106.362 984.578 Q104.441 982.842 101.339 982.842 Q99.14 982.842 96.6863 983.605 Q94.2558 984.369 91.478 985.92 L91.478 981.198 Q94.3021 980.064 96.7558 979.485 Q99.2095 978.906 101.246 978.906 Q106.617 978.906 109.811 981.592 Q113.006 984.277 113.006 988.767 Q113.006 990.897 112.196 992.818 Q111.408 994.716 109.302 997.309 Q108.723 997.98 105.621 1001.2 Q102.52 1004.39 96.8715 1010.16 Z" fill="#000000" fill-rule="evenodd" fill-opacity="1" /><path clip-path="url(#clip130)" d="M101.246 622.979 Q97.6354 622.979 95.8067 626.544 Q94.0012 630.086 94.0012 637.216 Q94.0012 644.322 95.8067 647.887 Q97.6354 651.428 101.246 651.428 Q104.881 651.428 106.686 647.887 Q108.515 644.322 108.515 637.216 Q108.515 630.086 106.686 626.544 Q104.881 622.979 101.246 622.979 M101.246 619.276 Q107.057 619.276 110.112 623.882 Q113.191 628.466 113.191 637.216 Q113.191 645.942 110.112 650.549 Q107.057 655.132 101.246 655.132 Q95.4363 655.132 92.3576 650.549 Q89.3021 645.942 89.3021 637.216 Q89.3021 628.466 92.3576 623.882 Q95.4363 619.276 101.246 619.276 Z" fill="#000000" fill-rule="evenodd" fill-opacity="1" /><path clip-path="url(#clip130)" d="M96.8715 290.895 L113.191 290.895 L113.191 294.83 L91.2465 294.83 L91.2465 290.895 Q93.9086 288.14 98.4919 283.511 Q103.098 278.858 104.279 277.515 Q106.524 274.992 107.404 273.256 Q108.307 271.497 108.307 269.807 Q108.307 267.053 106.362 265.316 Q104.441 263.58 101.339 263.58 Q99.14 263.58 96.6863 264.344 Q94.2558 265.108 91.478 266.659 L91.478 261.937 Q94.3021 260.803 96.7558 260.224 Q99.2095 259.645 101.246 259.645 Q106.617 259.645 109.811 262.33 Q113.006 265.016 113.006 269.506 Q113.006 271.636 112.196 273.557 Q111.408 275.455 109.302 278.048 Q108.723 278.719 105.621 281.937 Q102.52 285.131 96.8715 290.895 Z" fill="#000000" fill-rule="evenodd" fill-opacity="1" /><polyline clip-path="url(#clip132)" style="stroke:#000000; stroke-linecap:butt; stroke-linejoin:round; stroke-width:4; stroke-opacity:1; fill:none" points="
  211.556,818.066 218.509,688.034 225.461,462.965 232.414,338.045 239.366,927.467 246.319,310.511 253.272,559.745 260.224,911.49 267.177,692.769 274.13,488.741 
  281.082,1027.71 288.035,822.842 294.987,633.827 301.94,674.388 308.893,816.866 315.845,1015.85 322.798,948.511 329.751,739.48 336.703,748.885 343.656,689.336 
  350.608,474.068 357.561,574.859 364.514,445.508 371.466,646.65 378.419,865.225 385.372,471.121 392.324,653.161 399.277,638.415 406.229,512.468 413.182,544.122 
  420.135,745.347 427.087,605.343 434.04,620.812 440.993,673.942 447.945,445.522 454.898,753.969 461.85,467.088 468.803,448.622 475.756,902.221 482.708,828.465 
  489.661,1019.17 496.614,591.726 503.566,625.75 510.519,265.558 517.471,422.587 524.424,774.913 531.377,336.838 538.329,331.538 545.282,503.796 552.235,412.401 
  559.187,451.091 566.14,716.501 573.092,767.547 580.045,876.949 586.998,762.887 593.95,1066.06 600.903,783.763 607.856,1379.44 614.808,1384.24 621.761,1335.72 
  628.713,1096.72 635.666,829.115 642.619,934.661 649.571,1096.05 656.524,506.366 663.477,762.3 670.429,694.304 677.382,709.454 684.334,1004.69 691.287,673.743 
  698.24,851.399 705.192,693.445 712.145,1012.85 719.098,858.33 726.05,598.208 733.003,709.086 739.955,847.477 746.908,584.055 753.861,992.602 760.813,868.345 
  767.766,726.15 774.719,600.905 781.671,968.5 788.624,947.519 795.576,906.239 802.529,871.19 809.482,916.676 816.434,817.576 823.387,958.099 830.34,776.752 
  837.292,990.814 844.245,761.49 851.197,666.785 858.15,900.741 865.103,927.755 872.055,505.465 879.008,495.418 885.961,643.864 892.913,599.81 899.866,300.278 
  906.818,1113.88 913.771,547.548 920.724,327.404 927.676,436.373 934.629,429.993 941.582,638.826 948.534,534.704 955.487,277.449 962.439,171.364 969.392,471.065 
  976.345,229.12 983.297,364.263 990.25,86.1857 997.203,660.41 1004.16,276.789 1011.11,453.581 1018.06,465.826 1025.01,442.546 1031.97,929.66 1038.92,432.131 
  1045.87,491.483 1052.82,237.823 1059.78,208.192 1066.73,637.258 1073.68,563.254 1080.63,762.633 1087.59,260.961 1094.54,561.326 1101.49,346.021 1108.44,836.421 
  1115.4,635.083 1122.35,431.391 1129.3,811.49 1136.26,936.902 1143.21,843.382 1150.16,913.758 1157.11,960.292 1164.07,1152.59 1171.02,721.875 1177.97,834.578 
  1184.92,937.946 1191.88,732.932 1198.83,816.483 1205.78,732.571 1212.73,603.578 1219.69,378.743 1226.64,958.801 1233.59,782.831 1240.54,590.814 1247.5,821.187 
  1254.45,887.808 1261.4,496.753 1268.35,588.92 1275.31,754.599 1282.26,853.872 1289.21,529.132 1296.17,608.86 1303.12,881.784 1310.07,614.323 1317.02,368.377 
  1323.98,409.645 1330.93,595.373 1337.88,834.928 1344.83,579.173 1351.79,784.117 1358.74,422.091 1365.69,747.714 1372.64,987.77 1379.6,863.447 1386.55,571.354 
  1393.5,827.538 1400.45,758.271 1407.41,1075.84 1414.36,299.213 1421.31,609.27 1428.27,932.801 1435.22,975.033 1442.17,938.743 1449.12,859.929 1456.08,978.625 
  1463.03,929.003 1469.98,853.124 1476.93,1110.31 1483.89,410.418 1490.84,1009.08 1497.79,956.716 1504.74,552.086 1511.7,818.236 1518.65,850.458 1525.6,506.204 
  1532.55,632.622 1539.51,654.889 1546.46,616.32 1553.41,816.386 1560.37,1045.67 1567.32,391.617 1574.27,833.3 1581.22,637.144 1588.18,877.488 1595.13,1026.57 
  1602.08,1043.56 1609.03,789.339 1615.99,959.344 1622.94,612.902 1629.89,707.167 1636.84,693.571 1643.8,623.333 1650.75,778.058 1657.7,574.731 1664.65,654.176 
  1671.61,481.503 1678.56,436.917 1685.51,670.238 1692.47,630.639 1699.42,656.428 1706.37,736.592 1713.32,654.816 1720.28,857.063 1727.23,451.553 1734.18,465.261 
  1741.13,756.755 1748.09,330.551 1755.04,793.411 1761.99,692.057 1768.94,1072.15 1775.9,464.951 1782.85,668.548 1789.8,424.762 1796.75,762.353 1803.71,583.938 
  1810.66,510.675 1817.61,625.656 1824.56,665.576 1831.52,836.168 1838.47,655.504 1845.42,592.901 1852.38,809.889 1859.33,581.952 1866.28,651.748 1873.23,587.212 
  1880.19,530.031 1887.14,698.891 1894.09,137.731 1901.04,483.66 1908,348.728 1914.95,646.603 1921.9,470.074 1928.85,336.134 1935.81,457.947 1942.76,209.871 
  1949.71,743.435 1956.66,321.699 1963.62,659.412 1970.57,489.173 1977.52,619.12 1984.48,500.357 1991.43,755.38 1998.38,596.923 2005.33,737.182 2012.29,792.502 
  2019.24,396.381 2026.19,504.238 2033.14,498.964 2040.1,517.468 2047.05,328.824 2054,507.186 2060.95,690.847 2067.91,489.504 2074.86,526.787 2081.81,626.421 
  2088.76,701.146 2095.72,591.895 2102.67,371.413 2109.62,369.079 2116.58,697.435 2123.53,716.893 2130.48,965.215 2137.43,582.897 2144.39,525.65 2151.34,545.072 
  2158.29,673.04 2165.24,722.221 2172.2,569.965 2179.15,319.19 2186.1,464.583 2193.05,544.851 2200.01,186.664 2206.96,705.463 2213.91,495.314 2220.86,425.334 
  2227.82,712.35 2234.77,1106.48 2241.72,797.622 2248.68,473.296 2255.63,576.867 2262.58,729.231 2269.53,440.005 2276.49,923.342 2283.44,786.74 2290.39,874.909 
  
  "/>
<path clip-path="url(#clip130)" d="
M2009.23 196.789 L2279.3 196.789 L2279.3 93.1086 L2009.23 93.1086  Z
  " fill="#ffffff" fill-rule="evenodd" fill-opacity="1"/>
<polyline clip-path="url(#clip130)" style="stroke:#000000; stroke-linecap:butt; stroke-linejoin:round; stroke-width:4; stroke-opacity:1; fill:none" points="
  2009.23,196.789 2279.3,196.789 2279.3,93.1086 2009.23,93.1086 2009.23,196.789 
  "/>
<polyline clip-path="url(#clip130)" style="stroke:#000000; stroke-linecap:butt; stroke-linejoin:round; stroke-width:4; stroke-opacity:1; fill:none" points="
  2033.72,144.949 2180.62,144.949 
  "/>
<path clip-path="url(#clip130)" d="M2218.95 164.636 Q2217.14 169.266 2215.43 170.678 Q2213.72 172.09 2210.84 172.09 L2207.44 172.09 L2207.44 168.525 L2209.94 168.525 Q2211.7 168.525 2212.67 167.692 Q2213.65 166.858 2214.83 163.756 L2215.59 161.812 L2205.1 136.303 L2209.62 136.303 L2217.72 156.581 L2225.82 136.303 L2230.34 136.303 L2218.95 164.636 Z" fill="#000000" fill-rule="evenodd" fill-opacity="1" /></svg>
